<?xml version="1.0" encoding="UTF-8"?>
<!DOCTYPE svg PUBLIC "-//W3C//DTD SVG 1.1//EN" "http://www.w3.org/Graphics/SVG/1.1/DTD/svg11.dtd">
<svg xmlns="http://www.w3.org/2000/svg" version="1.1" width="1074px" height="232px" style="shape-rendering:geometricPrecision; text-rendering:geometricPrecision; image-rendering:optimizeQuality; fill-rule:evenodd; clip-rule:evenodd" xmlns:xlink="http://www.w3.org/1999/xlink">
<g><path style="opacity:1" fill="#0c4d8a" d="M 110.5,11.5 C 119.037,15.7162 127.037,20.7162 134.5,26.5C 132.883,25.962 131.216,25.6287 129.5,25.5C 129.152,29.977 127.152,30.6437 123.5,27.5C 119.328,30.6156 116.995,29.949 116.5,25.5C 118.007,24.2612 119.174,24.5946 120,26.5C 121.771,25.6959 123.271,24.5292 124.5,23C 122.164,20.1666 119.164,18.9999 115.5,19.5C 115.33,20.8221 115.663,21.9887 116.5,23C 116,23.5 115.5,24 115,24.5C 113.732,24.3842 112.398,24.0509 111,23.5C 109.889,26.955 111.056,28.955 114.5,29.5C 114.67,30.8221 114.337,31.9887 113.5,33C 115.892,36.0909 117.726,35.5909 119,31.5C 121.046,32.9105 122.879,34.5772 124.5,36.5C 122.031,37.0361 119.864,38.0361 118,39.5C 116.417,37.0072 114.917,37.1738 113.5,40C 114.572,41.2837 115.905,41.6171 117.5,41C 116.167,42.8402 116.334,43.3402 118,42.5C 119,44.1667 120,45.8333 121,47.5C 121.294,42.4411 122.461,42.2744 124.5,47C 123.635,48.3588 122.635,49.5255 121.5,50.5C 119.552,48.2113 117.552,45.878 115.5,43.5C 113.892,42.7579 112.225,42.5913 110.5,43C 109.077,39.9082 106.743,37.9082 103.5,37C 106.394,34.0396 106.061,33.2062 102.5,34.5C 100.826,33.1199 99.1596,31.7866 97.5,30.5C 95.6076,31.8129 93.941,31.6462 92.5,30C 92.9437,28.4667 93.277,26.9667 93.5,25.5C 91.8164,24.1456 91.3164,22.4789 92,20.5C 92.3678,21.91 93.2011,22.91 94.5,23.5C 94.7552,21.6565 94.9219,19.6565 95,17.5C 96.0113,16.6634 97.1779,16.33 98.5,16.5C 98.439,13.2699 96.7723,11.4365 93.5,11C 94.1667,10.3333 94.8333,9.66667 95.5,9C 100.463,9.16019 105.463,9.99352 110.5,11.5 Z"/></g>
<g><path style="opacity:1" fill="#0f4a7e" d="M 110.5,11.5 C 105.463,9.99352 100.463,9.16019 95.5,9C 94.8333,9.66667 94.1667,10.3333 93.5,11C 96.7723,11.4365 98.439,13.2699 98.5,16.5C 97.1779,16.33 96.0113,16.6634 95,17.5C 94.9219,19.6565 94.7552,21.6565 94.5,23.5C 93.2011,22.91 92.3678,21.91 92,20.5C 91.3164,22.4789 91.8164,24.1456 93.5,25.5C 93.277,26.9667 92.9437,28.4667 92.5,30C 93.941,31.6462 95.6076,31.8129 97.5,30.5C 99.1596,31.7866 100.826,33.1199 102.5,34.5C 106.061,33.2062 106.394,34.0396 103.5,37C 106.743,37.9082 109.077,39.9082 110.5,43C 112.225,42.5913 113.892,42.7579 115.5,43.5C 117.552,45.878 119.552,48.2113 121.5,50.5C 124.712,50.7124 126.712,52.3791 127.5,55.5C 118.586,50.5901 109.92,45.2567 101.5,39.5C 100.448,39.3505 99.448,39.5172 98.5,40C 98.7375,42.2884 98.7375,44.7884 98.5,47.5C 96.3523,47.6106 96.019,46.944 97.5,45.5C 96.9747,44.8076 96.3081,44.3076 95.5,44C 96.8333,43 96.8333,42 95.5,41C 93.5273,40.5045 91.5273,40.3379 89.5,40.5C 89.5,39.5 89.5,38.5 89.5,37.5C 86.9556,37.8957 84.7889,37.229 83,35.5C 82.4257,33.508 81.259,32.008 79.5,31C 80.5171,29.9505 80.6838,28.7839 80,27.5C 79.6667,28.1667 79.3333,28.8333 79,29.5C 77.3897,27.0607 76.5564,24.394 76.5,21.5C 76.5,20.8333 76.5,20.1667 76.5,19.5C 83.3255,14.863 90.3255,10.363 97.5,6C 102.721,5.60752 107.055,7.44085 110.5,11.5 Z"/></g>
<g><path style="opacity:1" fill="#06427a" d="M 76.5,21.5 C 76.5564,24.394 77.3897,27.0607 79,29.5C 79.3333,28.8333 79.6667,28.1667 80,27.5C 80.6838,28.7839 80.5171,29.9505 79.5,31C 81.259,32.008 82.4257,33.508 83,35.5C 84.7889,37.229 86.9556,37.8957 89.5,37.5C 89.5,38.5 89.5,39.5 89.5,40.5C 91.5273,40.3379 93.5273,40.5045 95.5,41C 96.8333,42 96.8333,43 95.5,44C 96.3081,44.3076 96.9747,44.8076 97.5,45.5C 96.019,46.944 96.3523,47.6106 98.5,47.5C 98.7852,49.288 98.4519,50.9547 97.5,52.5C 97.2514,51.4179 97.0848,50.0846 97,48.5C 94.2083,49.0981 91.5416,50.0981 89,51.5C 88.5,51.3333 88,51.1667 87.5,51C 90.0443,49.4374 90.0443,47.9374 87.5,46.5C 83.2836,45.5527 79.2836,45.5527 75.5,46.5C 73.9247,38.435 73.758,30.435 75,22.5C 75.3826,21.944 75.8826,21.6107 76.5,21.5 Z"/></g>
<g><path style="opacity:1" fill="#0c5093" d="M 134.5,26.5 C 139.515,29.0043 144.181,32.0043 148.5,35.5C 150.388,37.7543 152.555,39.7543 155,41.5C 155.747,44.9507 155.08,45.284 153,42.5C 152.833,42.8333 152.667,43.1667 152.5,43.5C 153.711,44.7202 153.711,45.8869 152.5,47C 153.672,47.4186 154.672,48.0853 155.5,49C 154.044,49.4226 153.544,50.2559 154,51.5C 155.011,50.6634 156.178,50.33 157.5,50.5C 157.5,51.5 157.5,52.5 157.5,53.5C 155.305,52.3918 153.305,52.5585 151.5,54C 153.5,54.6667 155.5,55.3333 157.5,56C 155.782,56.346 154.115,56.846 152.5,57.5C 149.815,56.8229 146.982,56.8229 144,57.5C 143,56.8333 142,56.1667 141,55.5C 139.601,59.6157 137.101,60.449 133.5,58C 135.125,57.1475 135.458,56.1475 134.5,55C 132.203,54.9822 129.869,55.1489 127.5,55.5C 126.712,52.3791 124.712,50.7124 121.5,50.5C 122.635,49.5255 123.635,48.3588 124.5,47C 122.461,42.2744 121.294,42.4411 121,47.5C 120,45.8333 119,44.1667 118,42.5C 116.334,43.3402 116.167,42.8402 117.5,41C 115.905,41.6171 114.572,41.2837 113.5,40C 114.917,37.1738 116.417,37.0072 118,39.5C 119.864,38.0361 122.031,37.0361 124.5,36.5C 122.879,34.5772 121.046,32.9105 119,31.5C 117.726,35.5909 115.892,36.0909 113.5,33C 114.337,31.9887 114.67,30.8221 114.5,29.5C 111.056,28.955 109.889,26.955 111,23.5C 112.398,24.0509 113.732,24.3842 115,24.5C 115.5,24 116,23.5 116.5,23C 115.663,21.9887 115.33,20.8221 115.5,19.5C 119.164,18.9999 122.164,20.1666 124.5,23C 123.271,24.5292 121.771,25.6959 120,26.5C 119.174,24.5946 118.007,24.2612 116.5,25.5C 116.995,29.949 119.328,30.6156 123.5,27.5C 127.152,30.6437 129.152,29.977 129.5,25.5C 131.216,25.6287 132.883,25.962 134.5,26.5 Z"/></g>
<g><path style="opacity:1" fill="#093a69" d="M 76.5,19.5 C 76.5,20.1667 76.5,20.8333 76.5,21.5C 75.8826,21.6107 75.3826,21.944 75,22.5C 73.758,30.435 73.9247,38.435 75.5,46.5C 79.2836,45.5527 83.2836,45.5527 87.5,46.5C 90.0443,47.9374 90.0443,49.4374 87.5,51C 88,51.1667 88.5,51.3333 89,51.5C 91.5416,50.0981 94.2083,49.0981 97,48.5C 97.0848,50.0846 97.2514,51.4179 97.5,52.5C 98.4519,50.9547 98.7852,49.288 98.5,47.5C 98.7375,44.7884 98.7375,42.2884 98.5,40C 99.448,39.5172 100.448,39.3505 101.5,39.5C 100.57,43.3998 100.237,47.3998 100.5,51.5C 99.7513,55.0536 98.918,58.7203 98,62.5C 97.6667,61.8333 97.3333,61.1667 97,60.5C 94.3352,62.2193 91.5019,63.7193 88.5,65C 89.1667,65.3333 89.8333,65.6667 90.5,66C 86.1289,66.1725 81.7956,66.6725 77.5,67.5C 76.846,69.1151 76.346,70.7818 76,72.5C 74.3704,69.2148 73.8704,65.8815 74.5,62.5C 73.8595,53.7045 73.1928,45.0378 72.5,36.5C 72.3342,31.8215 72.5008,27.1548 73,22.5C 73.4224,20.5743 74.5891,19.5743 76.5,19.5 Z"/></g>
<g><path style="opacity:1" fill="#012b4c" d="M 39.5,74.5 C 33.3578,72.1821 28.0245,68.6821 23.5,64C 24.8333,63.3333 26.1667,62.6667 27.5,62C 28.7452,59.0847 28.7452,56.2514 27.5,53.5C 30.2285,52.9382 31.7285,51.2715 32,48.5C 34.6462,47.635 36.4795,45.9684 37.5,43.5C 38.5137,42.3263 39.847,41.6596 41.5,41.5C 44.5041,40.2434 47.3375,38.5767 50,36.5C 50.4923,43.9079 49.9923,51.2412 48.5,58.5C 50.1608,61.9769 49.8275,65.1436 47.5,68C 47.8333,68.3333 48.1667,68.6667 48.5,69C 45.5072,71.4276 42.5072,73.261 39.5,74.5 Z"/></g>
<g><path style="opacity:1" fill="#132f48" d="M 40.5,75.5 C 40.5,74.8333 40.1667,74.5 39.5,74.5C 42.5072,73.261 45.5072,71.4276 48.5,69C 48.1667,68.6667 47.8333,68.3333 47.5,68C 49.8275,65.1436 50.1608,61.9769 48.5,58.5C 49.9923,51.2412 50.4923,43.9079 50,36.5C 47.3375,38.5767 44.5041,40.2434 41.5,41.5C 44.3528,37.7855 48.0194,35.6189 52.5,35C 53.0219,35.5613 53.3552,36.228 53.5,37C 52.702,47.1326 52.202,57.2992 52,67.5C 48.9313,71.2829 45.0979,73.9495 40.5,75.5 Z"/></g>
<g><path style="opacity:1" fill="#073052" d="M 72.5,36.5 C 73.1928,45.0378 73.8595,53.7045 74.5,62.5C 73.8704,65.8815 74.3704,69.2148 76,72.5C 76.346,70.7818 76.846,69.1151 77.5,67.5C 81.7956,66.6725 86.1289,66.1725 90.5,66C 89.8333,65.6667 89.1667,65.3333 88.5,65C 91.5019,63.7193 94.3352,62.2193 97,60.5C 97.3333,61.1667 97.6667,61.8333 98,62.5C 98.918,58.7203 99.7513,55.0536 100.5,51.5C 100.5,56.5 100.5,61.5 100.5,66.5C 94.6494,68.2131 89.6494,71.2131 85.5,75.5C 82.7135,77.5204 79.7135,79.3537 76.5,81C 78.2113,82.4352 79.378,84.2686 80,86.5C 83.6231,88.2886 86.4564,90.9553 88.5,94.5C 90.4224,93.04 91.0891,91.3733 90.5,89.5C 91.4287,90.6888 91.762,92.0222 91.5,93.5C 94.2406,93.7073 96.5739,94.7073 98.5,96.5C 96.6137,97.3606 94.7804,98.3606 93,99.5C 92.9115,97.8866 93.7448,96.7199 95.5,96C 92.2994,95.7331 89.2994,95.7331 86.5,96C 89.87,98.6844 93.5367,100.851 97.5,102.5C 97.1667,102.5 96.8333,102.5 96.5,102.5C 93.1362,101.789 90.8029,102.956 89.5,106C 87.973,107.368 86.473,107.868 85,107.5C 83.3181,106.135 83.1514,104.635 84.5,103C 82.208,101.71 80.208,100.043 78.5,98C 79.0219,97.4387 79.3552,96.772 79.5,96C 76.7856,94.133 75.1189,91.633 74.5,88.5C 73.325,88.719 72.325,88.3857 71.5,87.5C 73.8252,84.7 75.4919,81.5334 76.5,78C 75.2986,77.0975 74.4652,75.9308 74,74.5C 73.8138,71.9644 73.3138,69.631 72.5,67.5C 72.5,57.1667 72.5,46.8333 72.5,36.5 Z"/></g>
<g><path style="opacity:1" fill="#0c4b87" d="M 148.5,35.5 C 161.512,43.0032 174.179,51.0032 186.5,59.5C 186.67,60.8221 186.337,61.9887 185.5,63C 187.931,64.4249 189.931,66.9249 191.5,70.5C 190.833,71.8333 190.167,73.1667 189.5,74.5C 189.428,76.7964 189.594,79.1297 190,81.5C 188.989,82.3366 187.822,82.67 186.5,82.5C 186.628,84.6547 186.128,86.6547 185,88.5C 179.45,84.7248 173.45,81.7248 167,79.5C 165.131,76.2557 162.298,74.5891 158.5,74.5C 158.649,73.448 158.483,72.448 158,71.5C 157.667,71.8333 157.333,72.1667 157,72.5C 155.647,71.3147 154.48,69.9814 153.5,68.5C 152.264,69.2458 150.93,69.5792 149.5,69.5C 146.553,68.0266 143.553,66.5266 140.5,65C 136.099,61.8121 131.766,58.6454 127.5,55.5C 129.869,55.1489 132.203,54.9822 134.5,55C 135.458,56.1475 135.125,57.1475 133.5,58C 137.101,60.449 139.601,59.6157 141,55.5C 142,56.1667 143,56.8333 144,57.5C 146.982,56.8229 149.815,56.8229 152.5,57.5C 154.115,56.846 155.782,56.346 157.5,56C 155.5,55.3333 153.5,54.6667 151.5,54C 153.305,52.5585 155.305,52.3918 157.5,53.5C 157.5,52.5 157.5,51.5 157.5,50.5C 156.178,50.33 155.011,50.6634 154,51.5C 153.544,50.2559 154.044,49.4226 155.5,49C 154.672,48.0853 153.672,47.4186 152.5,47C 153.711,45.8869 153.711,44.7202 152.5,43.5C 152.667,43.1667 152.833,42.8333 153,42.5C 155.08,45.284 155.747,44.9507 155,41.5C 152.555,39.7543 150.388,37.7543 148.5,35.5 Z"/></g>
<g><path style="opacity:1" fill="#e6e6e6" d="M 573.5,68.5 C 574.478,68.811 575.145,69.4777 575.5,70.5C 573.667,75.5 571.833,80.5 570,85.5C 566.27,86.4601 562.437,86.7935 558.5,86.5C 558.918,98.8949 558.418,111.228 557,123.5C 552.913,135.265 548.747,146.931 544.5,158.5C 542.579,159.641 540.579,159.808 538.5,159C 538.419,134.532 538.419,110.532 538.5,87C 536.899,86.7266 535.399,86.2266 534,85.5C 527.033,85.7565 519.866,85.9231 512.5,86C 511.833,81 511.167,76 510.5,71C 531.522,69.8446 552.522,69.0112 573.5,68.5 Z"/></g>
<g><path style="opacity:1" fill="#e6e6e6" d="M 908.5,68.5 C 909.117,68.6107 909.617,68.944 910,69.5C 910.499,75.1569 910.666,80.8236 910.5,86.5C 897.102,85.9537 883.769,85.9537 870.5,86.5C 870.334,92.5092 870.501,98.5092 871,104.5C 871.5,105 872,105.5 872.5,106C 884.349,106.426 896.016,106.259 907.5,105.5C 907.5,111.167 907.5,116.833 907.5,122.5C 895.167,122.5 882.833,122.5 870.5,122.5C 870.334,129.175 870.5,135.842 871,142.5C 883.674,142.81 896.507,142.477 909.5,141.5C 910.496,147.463 910.829,153.463 910.5,159.5C 890.167,159.5 869.833,159.5 849.5,159.5C 849.5,129.5 849.5,99.5 849.5,69.5C 869.34,69.8304 889.007,69.4971 908.5,68.5 Z"/></g>
<g><path style="opacity:1" fill="#e4e4e4" d="M 482.5,69.5 C 489.167,69.5 495.833,69.5 502.5,69.5C 502.5,99.5 502.5,129.5 502.5,159.5C 495.825,159.666 489.158,159.5 482.5,159C 482.043,158.586 481.709,158.086 481.5,157.5C 482.262,128.228 482.596,98.8943 482.5,69.5 Z"/></g>
<g><path style="opacity:1" fill="#053863" d="M 85.5,75.5 C 84.3751,80.0191 86.3751,82.0191 91.5,81.5C 89.7862,85.3915 91.1195,87.3915 95.5,87.5C 95.5,89.1667 95.5,90.8333 95.5,92.5C 97.5466,92.5111 99.5466,92.8444 101.5,93.5C 102.647,93.1822 103.481,92.5156 104,91.5C 105.77,93.4181 107.937,93.9181 110.5,93C 107.5,92 104.5,91 101.5,90C 100.633,88.2976 99.9661,86.1309 99.5,83.5C 102.577,83.3471 105.411,84.0137 108,85.5C 111.498,84.1133 112.331,85.28 110.5,89C 111.167,90.6667 111.833,92.3333 112.5,94C 109.183,94.4983 105.85,94.665 102.5,94.5C 102.5,95.5 102.5,96.5 102.5,97.5C 100.901,97.7678 99.5676,97.4345 98.5,96.5C 96.5739,94.7073 94.2406,93.7073 91.5,93.5C 91.762,92.0222 91.4287,90.6888 90.5,89.5C 91.0891,91.3733 90.4224,93.04 88.5,94.5C 86.4564,90.9553 83.6231,88.2886 80,86.5C 79.378,84.2686 78.2113,82.4352 76.5,81C 79.7135,79.3537 82.7135,77.5204 85.5,75.5 Z"/></g>
<g><path style="opacity:1" fill="#114672" d="M 186.5,59.5 C 189.849,60.6836 192.015,63.017 193,66.5C 193.5,75.8274 193.666,85.1607 193.5,94.5C 192.71,95.6085 192.21,96.9419 192,98.5C 191.825,94.789 191.325,91.1224 190.5,87.5C 189.28,88.7111 188.113,88.7111 187,87.5C 187.035,91.2452 186.035,91.9119 184,89.5C 183.667,89.8333 183.333,90.1667 183,90.5C 182.626,89.5838 182.126,88.7504 181.5,88C 177.533,87.1907 173.866,85.6907 170.5,83.5C 170.167,83.5 169.833,83.5 169.5,83.5C 162.534,79.1901 155.867,74.5235 149.5,69.5C 150.93,69.5792 152.264,69.2458 153.5,68.5C 154.48,69.9814 155.647,71.3147 157,72.5C 157.333,72.1667 157.667,71.8333 158,71.5C 158.483,72.448 158.649,73.448 158.5,74.5C 162.298,74.5891 165.131,76.2557 167,79.5C 173.45,81.7248 179.45,84.7248 185,88.5C 186.128,86.6547 186.628,84.6547 186.5,82.5C 187.822,82.67 188.989,82.3366 190,81.5C 189.594,79.1297 189.428,76.7964 189.5,74.5C 190.167,73.1667 190.833,71.8333 191.5,70.5C 189.931,66.9249 187.931,64.4249 185.5,63C 186.337,61.9887 186.67,60.8221 186.5,59.5 Z"/></g>
<g><path style="opacity:1" fill="#e6e6e6" d="M 617.5,68.5 C 626.482,68.3837 635.482,69.5504 644.5,72C 653.992,76.4962 659.159,83.9962 660,94.5C 662.055,107.559 657.222,117.392 645.5,124C 651.913,135.327 657.913,146.827 663.5,158.5C 656.189,159.665 648.856,159.831 641.5,159C 635.717,148.602 630.05,138.102 624.5,127.5C 620.571,128.433 616.571,128.766 612.5,128.5C 612.5,138.833 612.5,149.167 612.5,159.5C 605.323,159.96 598.323,159.46 591.5,158C 592.82,142.709 592.82,127.375 591.5,112C 595.755,99.4616 599.921,86.9616 604,74.5C 604.465,73.0692 605.299,71.9025 606.5,71C 606.167,70.6667 605.833,70.3333 605.5,70C 609.688,69.8238 613.688,69.3238 617.5,68.5 Z M 622.5,85.5 C 636.148,85.6718 641.648,92.0051 639,104.5C 637.062,107.106 634.562,108.939 631.5,110C 625.175,111.111 618.841,111.611 612.5,111.5C 612.5,103.167 612.5,94.8333 612.5,86.5C 616.042,86.8128 619.375,86.4794 622.5,85.5 Z"/></g>
<g><path style="opacity:1" fill="#e6e6e6" d="M 721.5,68.5 C 724.288,70.2249 725.288,72.5582 724.5,75.5C 731.052,91.8406 737.386,108.341 743.5,125C 746.365,136.095 750.365,147.095 755.5,158C 751.679,159.136 747.679,159.636 743.5,159.5C 739.833,159.167 736.167,158.833 732.5,158.5C 730.302,152.574 728.302,146.574 726.5,140.5C 715.771,139.662 705.104,139.328 694.5,139.5C 691.685,146.162 689.685,152.828 688.5,159.5C 681.167,159.5 673.833,159.5 666.5,159.5C 677.035,129.583 687.368,99.916 697.5,70.5C 705.657,69.8333 713.657,69.1666 721.5,68.5 Z M 701.5,122.5 C 703.538,113.013 705.872,103.68 708.5,94.5C 709.822,94.33 710.989,94.6634 712,95.5C 714.796,104.191 717.296,112.691 719.5,121C 718.771,122.992 717.271,123.826 715,123.5C 710.393,122.982 705.893,122.649 701.5,122.5 Z"/></g>
<g><path style="opacity:1" fill="#123760" d="M 170.5,83.5 C 173.866,85.6907 177.533,87.1907 181.5,88C 182.126,88.7504 182.626,89.5838 183,90.5C 183.333,90.1667 183.667,89.8333 184,89.5C 186.035,91.9119 187.035,91.2452 187,87.5C 188.113,88.7111 189.28,88.7111 190.5,87.5C 191.325,91.1224 191.825,94.789 192,98.5C 192.21,96.9419 192.71,95.6085 193.5,94.5C 193.737,98.2733 193.237,101.94 192,105.5C 191.184,106.823 190.017,107.489 188.5,107.5C 189.917,102.906 189.25,98.5724 186.5,94.5C 181.233,90.5539 175.9,86.8872 170.5,83.5 Z"/></g>
<g><path style="opacity:1" fill="#073a6b" d="M 100.5,66.5 C 112.973,73.9052 125.307,81.5719 137.5,89.5C 138.944,93.2233 141.611,95.5567 145.5,96.5C 145.992,98.8409 147.159,100.841 149,102.5C 150.808,100.604 152.975,100.104 155.5,101C 155.879,103.632 156.712,106.466 158,109.5C 158.333,109.833 158.667,110.167 159,110.5C 159.333,109.167 159.667,107.833 160,106.5C 160.667,107.833 161.333,107.833 162,106.5C 163.559,108.217 164.392,110.217 164.5,112.5C 160.486,112.666 156.486,112.499 152.5,112C 151.788,109.119 150.122,106.952 147.5,105.5C 147.08,107.326 147.08,109.326 147.5,111.5C 145.227,110.265 143.394,110.598 142,112.5C 141.692,111.692 141.192,111.025 140.5,110.5C 139.167,111.833 137.833,111.833 136.5,110.5C 135.264,107.482 133.597,104.816 131.5,102.5C 129.457,103.579 128.124,105.246 127.5,107.5C 128.533,108.452 129.7,108.452 131,107.5C 132.826,108.01 132.993,108.844 131.5,110C 128.904,110.458 126.737,109.625 125,107.5C 123.301,108.406 121.467,108.739 119.5,108.5C 120.357,105.957 121.69,103.623 123.5,101.5C 123.291,100.914 122.957,100.414 122.5,100C 118.814,99.6406 115.314,98.8073 112,97.5C 108.564,97.8492 105.231,98.5158 102,99.5C 100.989,98.6634 99.8221,98.33 98.5,98.5C 98.5,99.5 98.5,100.5 98.5,101.5C 98.5,102.167 98.1667,102.5 97.5,102.5C 93.5367,100.851 89.87,98.6844 86.5,96C 89.2994,95.7331 92.2994,95.7331 95.5,96C 93.7448,96.7199 92.9115,97.8866 93,99.5C 94.7804,98.3606 96.6137,97.3606 98.5,96.5C 99.5676,97.4345 100.901,97.7678 102.5,97.5C 102.5,96.5 102.5,95.5 102.5,94.5C 105.85,94.665 109.183,94.4983 112.5,94C 111.833,92.3333 111.167,90.6667 110.5,89C 112.331,85.28 111.498,84.1133 108,85.5C 105.411,84.0137 102.577,83.3471 99.5,83.5C 99.9661,86.1309 100.633,88.2976 101.5,90C 104.5,91 107.5,92 110.5,93C 107.937,93.9181 105.77,93.4181 104,91.5C 103.481,92.5156 102.647,93.1822 101.5,93.5C 99.5466,92.8444 97.5466,92.5111 95.5,92.5C 95.5,90.8333 95.5,89.1667 95.5,87.5C 91.1195,87.3915 89.7862,85.3915 91.5,81.5C 86.3751,82.0191 84.3751,80.0191 85.5,75.5C 89.6494,71.2131 94.6494,68.2131 100.5,66.5 Z"/></g>
<g><path style="opacity:1" fill="#011f38" d="M 37.5,43.5 C 36.4795,45.9684 34.6462,47.635 32,48.5C 31.7285,51.2715 30.2285,52.9382 27.5,53.5C 28.7452,56.2514 28.7452,59.0847 27.5,62C 26.1667,62.6667 24.8333,63.3333 23.5,64C 28.0245,68.6821 33.3578,72.1821 39.5,74.5C 40.1667,74.5 40.5,74.8333 40.5,75.5C 38.572,77.4741 36.2387,78.9741 33.5,80C 30.5178,82.1911 30.1845,84.5245 32.5,87C 37.6959,90.43 43.0292,93.5966 48.5,96.5C 51.1404,99.2564 54.1404,101.756 57.5,104C 60.4695,104.763 62.9695,106.263 65,108.5C 65.7175,107.549 66.5509,107.383 67.5,108C 66.1669,109.84 66.3335,110.34 68,109.5C 69,110.167 70,110.833 71,111.5C 72.7216,111.038 74.555,110.872 76.5,111C 73.178,106.705 69.8447,102.372 66.5,98C 63.9109,96.8035 61.2442,95.8035 58.5,95C 59.4992,92.2389 61.4992,90.9056 64.5,91C 63.4019,90.2303 63.4019,89.397 64.5,88.5C 66.8123,86.364 69.3123,84.364 72,82.5C 72.4993,77.5111 72.6659,72.5111 72.5,67.5C 73.3138,69.631 73.8138,71.9644 74,74.5C 74.4652,75.9308 75.2986,77.0975 76.5,78C 75.4919,81.5334 73.8252,84.7 71.5,87.5C 72.325,88.3857 73.325,88.719 74.5,88.5C 75.1189,91.633 76.7856,94.133 79.5,96C 79.3552,96.772 79.0219,97.4387 78.5,98C 80.208,100.043 82.208,101.71 84.5,103C 83.1514,104.635 83.3181,106.135 85,107.5C 86.473,107.868 87.973,107.368 89.5,106C 90.8029,102.956 93.1362,101.789 96.5,102.5C 90.2318,106.643 83.8985,110.81 77.5,115C 84.4215,120.712 91.9215,125.545 100,129.5C 103.066,127.591 106.232,125.924 109.5,124.5C 110.117,124.611 110.617,124.944 111,125.5C 114.61,121.204 117.776,121.538 120.5,126.5C 119.753,126.736 118.92,127.07 118,127.5C 116.988,132.075 117.488,136.408 119.5,140.5C 119.291,141.086 118.957,141.586 118.5,142C 120.767,142.276 123.1,142.943 125.5,144C 126.451,144.718 126.617,145.551 126,146.5C 123.861,145.742 121.528,145.742 119,146.5C 117.167,148.333 115.333,150.167 113.5,152C 114.34,153.666 113.84,153.833 112,152.5C 110.956,153.623 110.29,154.956 110,156.5C 108.286,155.075 106.953,155.408 106,157.5C 102.808,153.604 103.975,151.437 109.5,151C 108.5,150.667 107.5,150.333 106.5,150C 108.167,149.667 109.833,149.333 111.5,149C 111.167,148.667 110.833,148.333 110.5,148C 106.579,147.797 102.745,147.297 99,146.5C 97.1267,147.089 95.46,146.422 94,144.5C 93.7508,145.624 93.2508,146.624 92.5,147.5C 91.2888,146.726 91.2888,145.893 92.5,145C 91.5,144.5 90.5,144 89.5,143.5C 88.3044,143.846 88.3044,144.346 89.5,145C 84.2702,145.909 84.2702,147.075 89.5,148.5C 87.4414,149.567 85.608,150.9 84,152.5C 82.5905,151.213 81.0905,150.046 79.5,149C 80.8333,147.333 82.1667,145.667 83.5,144C 81.7295,143.465 81.3961,142.631 82.5,141.5C 83.8498,142.95 85.5165,143.617 87.5,143.5C 87.6168,141.516 86.9501,139.85 85.5,138.5C 82.7899,137.485 80.4566,135.985 78.5,134C 74.2011,130.821 69.3678,127.321 64,123.5C 63.586,123.957 63.086,124.291 62.5,124.5C 62.1667,123.167 61.8333,121.833 61.5,120.5C 58.4316,119.022 55.7649,117.022 53.5,114.5C 52.6667,114.167 51.8333,113.833 51,113.5C 48.5284,114.322 46.0284,114.989 43.5,115.5C 45.0424,118.52 44.2091,120.854 41,122.5C 38.7473,121.623 36.5806,120.623 34.5,119.5C 34.3291,117.007 35.3291,115.174 37.5,114C 36.552,113.517 35.552,113.351 34.5,113.5C 34.5,112.5 34.5,111.5 34.5,110.5C 32.0655,112.374 29.2322,113.707 26,114.5C 24.5,114 23,113.5 21.5,113C 23.3266,112.101 24.66,110.767 25.5,109C 24.258,106.099 22.9247,103.266 21.5,100.5C 22.0253,99.8076 22.6919,99.3076 23.5,99C 20.9942,97.4909 18.4942,95.9909 16,94.5C 16.1261,89.3164 14.9594,88.6497 12.5,92.5C 9.86946,90.1121 9.20279,87.2788 10.5,84C 7.42491,79.0057 6.75824,73.6724 8.5,68C 7.93406,67.0053 7.26739,66.172 6.5,65.5C 7.11746,63.7708 8.11746,62.2708 9.5,61C 19.0296,55.4061 28.3629,49.5727 37.5,43.5 Z"/></g>
<g><path style="opacity:1" fill="#011223" d="M 64.5,88.5 C 63.4019,89.397 63.4019,90.2303 64.5,91C 61.4992,90.9056 59.4992,92.2389 58.5,95C 61.2442,95.8035 63.9109,96.8035 66.5,98C 69.8447,102.372 73.178,106.705 76.5,111C 74.555,110.872 72.7216,111.038 71,111.5C 70,110.833 69,110.167 68,109.5C 66.3335,110.34 66.1669,109.84 67.5,108C 66.5509,107.383 65.7175,107.549 65,108.5C 62.9695,106.263 60.4695,104.763 57.5,104C 54.1404,101.756 51.1404,99.2564 48.5,96.5C 49.1174,96.6107 49.6174,96.944 50,97.5C 54.6377,94.1022 59.4711,91.1022 64.5,88.5 Z"/></g>
<g><path style="opacity:1" fill="#05355f" d="M 137.5,89.5 C 141.199,92.3497 145.199,94.683 149.5,96.5C 150.261,97.3909 151.261,98.0576 152.5,98.5C 153.532,96.9604 154.865,96.4604 156.5,97C 159.306,99.8063 162.14,102.64 165,105.5C 165.333,105.167 165.667,104.833 166,104.5C 168.183,109.857 172.016,113.19 177.5,114.5C 180.501,117.493 183.835,120.159 187.5,122.5C 186.355,123.793 186.689,124.959 188.5,126C 186.479,126.513 184.979,127.68 184,129.5C 183.667,128.5 183.333,127.5 183,126.5C 182.821,131.591 180.821,132.591 177,129.5C 176.055,129.905 175.388,130.572 175,131.5C 170.938,130.776 166.938,129.776 163,128.5C 161.434,129.061 160.101,128.394 159,126.5C 157.601,127.227 156.101,127.727 154.5,128C 154.833,128.333 155.167,128.667 155.5,129C 154.5,129.5 153.5,130 152.5,130.5C 151.304,130.154 151.304,129.654 152.5,129C 151.167,129 149.833,129 148.5,129C 148.833,128.667 149.167,128.333 149.5,128C 146.567,126.729 143.901,125.062 141.5,123C 144.433,121.729 147.099,120.062 149.5,118C 148.216,117.316 147.049,117.483 146,118.5C 144.98,117.109 144.147,115.609 143.5,114C 140.479,113.327 137.479,112.993 134.5,113C 135.759,113.923 137.092,114.757 138.5,115.5C 138.291,116.086 137.957,116.586 137.5,117C 134.604,116.979 131.771,117.146 129,117.5C 126.281,113.473 122.448,111.306 117.5,111C 114.822,107.83 111.488,105.997 107.5,105.5C 104.905,103.371 101.905,102.038 98.5,101.5C 98.5,100.5 98.5,99.5 98.5,98.5C 99.8221,98.33 100.989,98.6634 102,99.5C 105.231,98.5158 108.564,97.8492 112,97.5C 115.314,98.8073 118.814,99.6406 122.5,100C 122.957,100.414 123.291,100.914 123.5,101.5C 121.69,103.623 120.357,105.957 119.5,108.5C 121.467,108.739 123.301,108.406 125,107.5C 126.737,109.625 128.904,110.458 131.5,110C 132.993,108.844 132.826,108.01 131,107.5C 129.7,108.452 128.533,108.452 127.5,107.5C 128.124,105.246 129.457,103.579 131.5,102.5C 133.597,104.816 135.264,107.482 136.5,110.5C 137.833,111.833 139.167,111.833 140.5,110.5C 141.192,111.025 141.692,111.692 142,112.5C 143.394,110.598 145.227,110.265 147.5,111.5C 147.08,109.326 147.08,107.326 147.5,105.5C 150.122,106.952 151.788,109.119 152.5,112C 156.486,112.499 160.486,112.666 164.5,112.5C 164.392,110.217 163.559,108.217 162,106.5C 161.333,107.833 160.667,107.833 160,106.5C 159.667,107.833 159.333,109.167 159,110.5C 158.667,110.167 158.333,109.833 158,109.5C 156.712,106.466 155.879,103.632 155.5,101C 152.975,100.104 150.808,100.604 149,102.5C 147.159,100.841 145.992,98.8409 145.5,96.5C 141.611,95.5567 138.944,93.2233 137.5,89.5 Z"/></g>
<g><path style="opacity:1" fill="#021f36" d="M 169.5,83.5 C 169.833,83.5 170.167,83.5 170.5,83.5C 175.9,86.8872 181.233,90.5539 186.5,94.5C 189.25,98.5724 189.917,102.906 188.5,107.5C 185.378,110.568 181.711,112.902 177.5,114.5C 172.016,113.19 168.183,109.857 166,104.5C 165.667,104.833 165.333,105.167 165,105.5C 162.14,102.64 159.306,99.8063 156.5,97C 154.865,96.4604 153.532,96.9604 152.5,98.5C 151.261,98.0576 150.261,97.3909 149.5,96.5C 157.222,93.7753 163.889,89.442 169.5,83.5 Z"/></g>
<g><path style="opacity:1" fill="#e7e7e7" d="M 599.5,68.5 C 600.267,69.172 600.934,70.0053 601.5,71C 591.082,100.125 580.582,129.291 570,158.5C 563.256,159.479 556.422,159.812 549.5,159.5C 556.564,137.825 564.231,115.992 572.5,94C 574.751,85.7543 577.084,77.5876 579.5,69.5C 586.354,69.824 593.021,69.4907 599.5,68.5 Z"/></g>
<g><path style="opacity:1" fill="#e6e6e6" d="M 402.5,69.5 C 416.504,69.3334 430.504,69.5001 444.5,70C 463.895,71.0769 471.728,81.2436 468,100.5C 465.558,104.941 462.392,108.774 458.5,112C 473.389,120.924 476.555,133.091 468,148.5C 462.903,154.467 456.403,157.967 448.5,159C 433.17,159.5 417.837,159.667 402.5,159.5C 402.466,129.376 402.466,99.376 402.5,69.5 Z M 422.5,85.5 C 428.176,85.3339 433.843,85.5006 439.5,86C 447.087,88.0025 449.92,92.8358 448,100.5C 445.658,103.754 442.491,105.588 438.5,106C 433.136,106.829 427.802,106.663 422.5,105.5C 422.594,99.0141 422.594,92.3474 422.5,85.5 Z M 423.5,120.5 C 430.175,120.334 436.842,120.5 443.5,121C 451.377,125.301 453.21,131.467 449,139.5C 448.25,140.126 447.416,140.626 446.5,141C 438.585,142.401 430.585,142.901 422.5,142.5C 422.203,135.08 422.536,127.746 423.5,120.5 Z"/></g>
<g><path style="opacity:1" fill="#60daf4" d="M 1043.5,98.5 C 1054.27,99.8696 1061.61,105.536 1065.5,115.5C 1062.92,114.952 1061.92,113.285 1062.5,110.5C 1060.88,110.36 1059.71,111.027 1059,112.5C 1052.91,109.07 1047.41,104.903 1042.5,100C 1043.06,99.6174 1043.39,99.1174 1043.5,98.5 Z"/></g>
<g><path style="opacity:1" fill="#e6e6e6" d="M 240.5,69.5 C 254.5,69.5 268.5,69.5 282.5,69.5C 293.153,99.4714 303.486,129.471 313.5,159.5C 306.137,159.831 298.803,159.497 291.5,158.5C 289.807,152.392 287.807,146.392 285.5,140.5C 275.041,139.336 264.375,139.336 253.5,140.5C 250.973,146.958 248.64,153.124 246.5,159C 239.476,159.831 232.476,159.664 225.5,158.5C 234.669,133.131 243.335,108.298 251.5,84C 247.848,83.5014 244.182,83.3347 240.5,83.5C 240.5,78.8333 240.5,74.1667 240.5,69.5 Z M 269.5,92.5 C 272.949,101.69 275.949,111.19 278.5,121C 278.355,121.772 278.022,122.439 277.5,123C 273.684,123.206 270.018,123.372 266.5,123.5C 264.181,122.936 261.847,122.436 259.5,122C 262.421,111.999 265.755,102.165 269.5,92.5 Z"/></g>
<g><path style="opacity:1" fill="#e5e5e5" d="M 321.5,70.5 C 335.661,69.3392 349.994,69.1725 364.5,70C 377.367,70.8747 385.867,77.3747 390,89.5C 392.097,99.7487 390.263,109.082 384.5,117.5C 381.618,119.885 378.951,122.385 376.5,125C 382.271,136.042 387.938,147.209 393.5,158.5C 386.189,159.665 378.856,159.831 371.5,159C 366.068,148.86 360.735,138.694 355.5,128.5C 351.564,128.638 347.564,128.304 343.5,127.5C 342.501,138.146 342.168,148.813 342.5,159.5C 335.468,159.83 328.468,159.497 321.5,158.5C 322.829,129.039 322.829,99.7059 321.5,70.5 Z M 352.5,85.5 C 365.847,85.3326 371.347,91.666 369,104.5C 366.222,107.807 362.722,109.974 358.5,111C 353.136,111.829 347.802,111.663 342.5,110.5C 342.577,102.68 342.577,94.6803 342.5,86.5C 346.042,86.8128 349.375,86.4794 352.5,85.5 Z"/></g>
<g><path style="opacity:1" fill="#031626" d="M 6.5,65.5 C 7.26739,66.172 7.93406,67.0053 8.5,68C 6.75824,73.6724 7.42491,79.0057 10.5,84C 9.20279,87.2788 9.86946,90.1121 12.5,92.5C 14.9594,88.6497 16.1261,89.3164 16,94.5C 18.4942,95.9909 20.9942,97.4909 23.5,99C 22.6919,99.3076 22.0253,99.8076 21.5,100.5C 22.9247,103.266 24.258,106.099 25.5,109C 24.66,110.767 23.3266,112.101 21.5,113C 23,113.5 24.5,114 26,114.5C 29.2322,113.707 32.0655,112.374 34.5,110.5C 34.5,111.5 34.5,112.5 34.5,113.5C 35.552,113.351 36.552,113.517 37.5,114C 35.3291,115.174 34.3291,117.007 34.5,119.5C 33.0779,119.25 32.0779,118.417 31.5,117C 32.5171,115.951 32.6838,114.784 32,113.5C 31.6322,114.91 30.7989,115.91 29.5,116.5C 27.5914,115.652 25.5914,115.318 23.5,115.5C 22.8333,115.5 22.1667,115.5 21.5,115.5C 16.0683,112.692 11.235,109.026 7,104.5C 6.50011,91.5043 6.33344,78.5043 6.5,65.5 Z"/></g>
<g><path style="opacity:1" fill="#5ad0f7" d="M 1043.5,98.5 C 1043.39,99.1174 1043.06,99.6174 1042.5,100C 1047.41,104.903 1052.91,109.07 1059,112.5C 1059.71,111.027 1060.88,110.36 1062.5,110.5C 1061.92,113.285 1062.92,114.952 1065.5,115.5C 1066.92,117.515 1067.59,119.848 1067.5,122.5C 1067.1,123.525 1066.44,123.692 1065.5,123C 1064.17,122.333 1064.17,121.667 1065.5,121C 1064.5,120.667 1063.5,120.333 1062.5,120C 1062.83,119.667 1063.17,119.333 1063.5,119C 1061.91,118.138 1060.25,117.471 1058.5,117C 1057.62,115.644 1057.29,114.144 1057.5,112.5C 1055.27,112.62 1053.1,112.287 1051,111.5C 1045.31,105.568 1038.47,102.235 1030.5,101.5C 1034.55,99.7402 1038.88,98.7402 1043.5,98.5 Z"/></g>
<g><path style="opacity:1" fill="#60bff5" d="M 1030.5,101.5 C 1038.47,102.235 1045.31,105.568 1051,111.5C 1053.1,112.287 1055.27,112.62 1057.5,112.5C 1057.29,114.144 1057.62,115.644 1058.5,117C 1060.25,117.471 1061.91,118.138 1063.5,119C 1063.17,119.333 1062.83,119.667 1062.5,120C 1063.5,120.333 1064.5,120.667 1065.5,121C 1064.17,121.667 1064.17,122.333 1065.5,123C 1066.44,123.692 1067.1,123.525 1067.5,122.5C 1068.76,124.726 1068.76,127.059 1067.5,129.5C 1066.17,128.833 1064.83,128.167 1063.5,127.5C 1063.65,126.448 1063.48,125.448 1063,124.5C 1062.33,123.167 1061.67,123.167 1061,124.5C 1060.94,122.117 1060.1,121.45 1058.5,122.5C 1056.53,121.695 1055.03,120.361 1054,118.5C 1052.69,119.287 1051.52,118.954 1050.5,117.5C 1052.1,116.356 1053.77,115.189 1055.5,114C 1051.2,114.363 1046.87,114.363 1042.5,114C 1036.53,112.019 1031.03,109.186 1026,105.5C 1025.28,106.451 1024.45,106.617 1023.5,106C 1025.55,103.98 1027.88,102.48 1030.5,101.5 Z"/></g>
<g><path style="opacity:1" fill="#6c97eb" d="M 1046.5,117.5 C 1047.18,119.176 1048.52,119.843 1050.5,119.5C 1050.34,120.873 1050.51,122.207 1051,123.5C 1051.33,123.167 1051.67,122.833 1052,122.5C 1053.3,123.085 1054.47,123.751 1055.5,124.5C 1054.83,125.167 1054.17,125.833 1053.5,126.5C 1053.17,126.5 1052.83,126.5 1052.5,126.5C 1050.83,126.5 1049.17,126.5 1047.5,126.5C 1046.07,125.097 1044.9,123.431 1044,121.5C 1042.99,123.025 1042.49,124.692 1042.5,126.5C 1039.47,123.477 1036.14,120.81 1032.5,118.5C 1031.5,119.167 1030.5,119.833 1029.5,120.5C 1028.8,118.328 1027.8,116.328 1026.5,114.5C 1026.83,114.167 1027.17,113.833 1027.5,113.5C 1033.29,117.657 1039.62,118.991 1046.5,117.5 Z"/></g>
<g><path style="opacity:1" fill="#e6e6e6" d="M 791.5,68.5 C 802.389,67.324 812.723,69.1574 822.5,74C 826.57,76.9473 830.07,80.4473 833,84.5C 835.587,89.182 837.087,94.182 837.5,99.5C 830.825,99.6663 824.158,99.4996 817.5,99C 810.373,85.2991 800.04,82.2991 786.5,90C 781.407,94.9434 778.407,100.943 777.5,108C 777.5,112.667 777.5,117.333 777.5,122C 782.417,141.456 794.084,146.956 812.5,138.5C 815.428,135.144 817.428,131.311 818.5,127C 812.5,126.667 806.5,126.333 800.5,126C 800.45,120.939 800.45,115.939 800.5,111C 813.162,110.5 825.829,110.333 838.5,110.5C 841.384,127.34 836.718,141.507 824.5,153C 807.5,163 790.5,163 773.5,153C 765.402,146.543 760.069,138.21 757.5,128C 755.433,114.195 757.266,100.695 763,87.5C 769.993,77.2634 779.493,70.9301 791.5,68.5 Z"/></g>
<g><path style="opacity:1" fill="#c5c5c5" d="M 21.5,115.5 C 22.1667,115.5 22.8333,115.5 23.5,115.5C 24.1667,116.167 24.8333,116.833 25.5,117.5C 20.9593,117.331 20.626,117.998 24.5,119.5C 23.814,121.064 23.9806,122.731 25,124.5C 25.3333,124.167 25.6667,123.833 26,123.5C 27.2805,126.447 29.2805,128.781 32,130.5C 32.8854,133 34.0521,135.333 35.5,137.5C 34.0977,138.842 34.4311,139.676 36.5,140C 35.255,140.791 33.9217,141.291 32.5,141.5C 30.7708,140.883 29.2708,139.883 28,138.5C 26.0662,134.299 23.3995,130.632 20,127.5C 18.1153,124.522 16.9487,121.522 16.5,118.5C 17.9649,117.263 19.6316,116.263 21.5,115.5 Z"/></g>
<g><path style="opacity:1" fill="#d9dad9" d="M 25.5,117.5 C 31.3733,121.204 37.3733,124.704 43.5,128C 45.7658,129.426 47.4324,131.26 48.5,133.5C 43.6531,136.835 38.6531,140.001 33.5,143C 32.1772,143.816 31.5106,144.983 31.5,146.5C 30.1667,149.167 28.8333,149.167 27.5,146.5C 29.8163,145.578 31.483,143.911 32.5,141.5C 33.9217,141.291 35.255,140.791 36.5,140C 34.4311,139.676 34.0977,138.842 35.5,137.5C 34.0521,135.333 32.8854,133 32,130.5C 29.2805,128.781 27.2805,126.447 26,123.5C 25.6667,123.833 25.3333,124.167 25,124.5C 23.9806,122.731 23.814,121.064 24.5,119.5C 20.626,117.998 20.9593,117.331 25.5,117.5 Z"/></g>
<g><path style="opacity:1" fill="#010e1b" d="M 134.5,123.5 C 139.743,125.28 144.076,128.28 147.5,132.5C 143.785,136.537 139.452,139.87 134.5,142.5C 134.178,140.278 134.845,138.444 136.5,137C 134.337,136.755 132.67,135.755 131.5,134C 131.957,133.586 132.291,133.086 132.5,132.5C 130.491,129.813 129.158,126.813 128.5,123.5C 130.46,122.481 132.46,122.481 134.5,123.5 Z"/></g>
<g><path style="opacity:1" fill="#053052" d="M 107.5,105.5 C 111.488,105.997 114.822,107.83 117.5,111C 122.448,111.306 126.281,113.473 129,117.5C 131.771,117.146 134.604,116.979 137.5,117C 137.957,116.586 138.291,116.086 138.5,115.5C 137.092,114.757 135.759,113.923 134.5,113C 137.479,112.993 140.479,113.327 143.5,114C 144.147,115.609 144.98,117.109 146,118.5C 147.049,117.483 148.216,117.316 149.5,118C 147.099,120.062 144.433,121.729 141.5,123C 143.901,125.062 146.567,126.729 149.5,128C 149.167,128.333 148.833,128.667 148.5,129C 149.833,129 151.167,129 152.5,129C 151.304,129.654 151.304,130.154 152.5,130.5C 153.5,130 154.5,129.5 155.5,129C 155.167,128.667 154.833,128.333 154.5,128C 156.101,127.727 157.601,127.227 159,126.5C 160.101,128.394 161.434,129.061 163,128.5C 166.938,129.776 170.938,130.776 175,131.5C 175.388,130.572 176.055,129.905 177,129.5C 180.821,132.591 182.821,131.591 183,126.5C 183.333,127.5 183.667,128.5 184,129.5C 184.979,127.68 186.479,126.513 188.5,126C 186.689,124.959 186.355,123.793 187.5,122.5C 191.367,124.383 193.367,127.55 193.5,132C 192.525,137.741 192.192,143.575 192.5,149.5C 191.25,149.423 190.417,148.756 190,147.5C 187.772,149.968 184.938,151.135 181.5,151C 182.5,151.333 183.5,151.667 184.5,152C 183.455,153.526 181.955,154.359 180,154.5C 176.343,154.006 173.01,152.673 170,150.5C 169.329,151.252 168.496,151.586 167.5,151.5C 167.5,150.833 167.5,150.167 167.5,149.5C 168.752,147.661 168.752,145.828 167.5,144C 160.942,139.89 154.275,136.057 147.5,132.5C 144.076,128.28 139.743,125.28 134.5,123.5C 134.092,122.357 133.425,121.357 132.5,120.5C 128.896,118.635 125.229,116.968 121.5,115.5C 117.112,111.779 112.445,108.445 107.5,105.5 Z"/></g>
<g><path style="opacity:1" fill="#00faf9" d="M 1052.5,126.5 C 1052.83,126.5 1053.17,126.5 1053.5,126.5C 1054.17,126.5 1054.5,126.833 1054.5,127.5C 1054.5,128.167 1054.17,128.5 1053.5,128.5C 1053.17,127.833 1052.83,127.167 1052.5,126.5 Z"/></g>
<g><path style="opacity:1" fill="#5facf0" d="M 1046.5,117.5 C 1047.83,117.5 1049.17,117.5 1050.5,117.5C 1051.52,118.954 1052.69,119.287 1054,118.5C 1055.03,120.361 1056.53,121.695 1058.5,122.5C 1060.1,121.45 1060.94,122.117 1061,124.5C 1061.67,123.167 1062.33,123.167 1063,124.5C 1063.48,125.448 1063.65,126.448 1063.5,127.5C 1062.27,127.721 1061.27,128.388 1060.5,129.5C 1059.38,128.37 1058.04,127.703 1056.5,127.5C 1056.95,126.542 1057.62,125.708 1058.5,125C 1057.55,124.517 1056.55,124.351 1055.5,124.5C 1054.47,123.751 1053.3,123.085 1052,122.5C 1051.67,122.833 1051.33,123.167 1051,123.5C 1050.51,122.207 1050.34,120.873 1050.5,119.5C 1048.52,119.843 1047.18,119.176 1046.5,117.5 Z"/></g>
<g><path style="opacity:1" fill="#649ff5" d="M 1054.5,127.5 C 1055.17,127.5 1055.83,127.5 1056.5,127.5C 1058.04,127.703 1059.38,128.37 1060.5,129.5C 1061.27,128.388 1062.27,127.721 1063.5,127.5C 1064.83,128.167 1066.17,128.833 1067.5,129.5C 1067.07,132.785 1066.07,135.785 1064.5,138.5C 1064.46,136.255 1063.63,135.588 1062,136.5C 1059.43,133.892 1056.59,131.559 1053.5,129.5C 1053.5,129.167 1053.5,128.833 1053.5,128.5C 1054.17,128.5 1054.5,128.167 1054.5,127.5 Z"/></g>
<g><path style="opacity:1" fill="#f8f8f7" d="M 9.5,123.5 C 8.12487,130.582 10.4582,136.082 16.5,140C 20.2219,142.19 23.8886,144.356 27.5,146.5C 28.8333,149.167 30.1667,149.167 31.5,146.5C 31.8588,148.371 32.8588,149.871 34.5,151C 52.79,162.304 70.79,173.97 88.5,186C 91.54,188.22 94.8733,189.72 98.5,190.5C 98.5,187.167 98.5,183.833 98.5,180.5C 104.966,178.869 111.633,176.869 118.5,174.5C 120.644,175.953 122.477,175.62 124,173.5C 124.902,175.431 126.069,177.097 127.5,178.5C 127.926,188.912 127.426,199.246 126,209.5C 118.767,215.536 110.933,220.703 102.5,225C 99.406,225.652 96.406,225.318 93.5,224C 65.3903,205.197 36.8903,187.03 8,169.5C 6.40504,155.556 6.0717,141.556 7,127.5C 7.20041,125.68 8.03374,124.347 9.5,123.5 Z"/></g>
<g><path style="opacity:1" fill="#f6f6f6" d="M 951.5,134.5 C 952.833,134.5 954.167,134.5 955.5,134.5C 955.337,136.857 955.503,139.19 956,141.5C 959.319,138.938 962.485,139.272 965.5,142.5C 968.733,148.285 967.733,153.118 962.5,157C 958.693,156.894 955.026,157.061 951.5,157.5C 951.5,149.833 951.5,142.167 951.5,134.5 Z M 957.5,142.5 C 962.805,143.077 964.638,146.077 963,151.5C 961.174,155.037 958.84,155.371 956,152.5C 955.037,148.851 955.537,145.518 957.5,142.5 Z"/></g>
<g><path style="opacity:1" fill="#748de6" d="M 1030.5,128.5 C 1035.33,129.659 1038,132.659 1038.5,137.5C 1032.38,137.616 1029.72,134.616 1030.5,128.5 Z"/></g>
<g><path style="opacity:1" fill="#a6a6a6" d="M 16.5,118.5 C 16.9487,121.522 18.1153,124.522 20,127.5C 23.3995,130.632 26.0662,134.299 28,138.5C 29.2708,139.883 30.7708,140.883 32.5,141.5C 31.483,143.911 29.8163,145.578 27.5,146.5C 23.8886,144.356 20.2219,142.19 16.5,140C 10.4582,136.082 8.12487,130.582 9.5,123.5C 11.9717,122.091 14.305,120.424 16.5,118.5 Z"/></g>
<g><path style="opacity:1" fill="#6d82f3" d="M 1047.5,126.5 C 1047.33,127.822 1047.66,128.989 1048.5,130C 1050.11,129.981 1051.77,129.815 1053.5,129.5C 1056.59,131.559 1059.43,133.892 1062,136.5C 1063.63,135.588 1064.46,136.255 1064.5,138.5C 1063.92,140.749 1062.59,142.415 1060.5,143.5C 1059.41,140.937 1057.74,138.77 1055.5,137C 1054.55,136.383 1053.72,136.549 1053,137.5C 1050.99,135.99 1049.16,134.323 1047.5,132.5C 1046.52,135.086 1046.19,137.753 1046.5,140.5C 1046.5,140.833 1046.5,141.167 1046.5,141.5C 1046.17,141.5 1045.83,141.5 1045.5,141.5C 1045.31,138.376 1045.14,135.043 1045,131.5C 1043.91,129.922 1043.07,128.255 1042.5,126.5C 1042.49,124.692 1042.99,123.025 1044,121.5C 1044.9,123.431 1046.07,125.097 1047.5,126.5 Z"/></g>
<g><path style="opacity:1" fill="#6f69f3" d="M 1060.5,143.5 C 1058.77,146.2 1056.43,148.2 1053.5,149.5C 1053.28,147.477 1053.28,145.144 1053.5,142.5C 1051.17,141.833 1048.83,141.167 1046.5,140.5C 1046.19,137.753 1046.52,135.086 1047.5,132.5C 1049.16,134.323 1050.99,135.99 1053,137.5C 1053.72,136.549 1054.55,136.383 1055.5,137C 1057.74,138.77 1059.41,140.937 1060.5,143.5 Z"/></g>
<g><path style="opacity:1" fill="#7549f5" d="M 1046.5,140.5 C 1048.83,141.167 1051.17,141.833 1053.5,142.5C 1053.28,145.144 1053.28,147.477 1053.5,149.5C 1052.43,150.434 1051.1,150.768 1049.5,150.5C 1048.5,150.5 1047.5,150.5 1046.5,150.5C 1046.5,147.5 1046.5,144.5 1046.5,141.5C 1046.5,141.167 1046.5,140.833 1046.5,140.5 Z"/></g>
<g><path style="opacity:1" fill="#031b2f" d="M 34.5,119.5 C 36.5806,120.623 38.7473,121.623 41,122.5C 44.2091,120.854 45.0424,118.52 43.5,115.5C 46.0284,114.989 48.5284,114.322 51,113.5C 51.8333,113.833 52.6667,114.167 53.5,114.5C 55.7649,117.022 58.4316,119.022 61.5,120.5C 61.8333,121.833 62.1667,123.167 62.5,124.5C 63.086,124.291 63.586,123.957 64,123.5C 69.3678,127.321 74.2011,130.821 78.5,134C 80.4566,135.985 82.7899,137.485 85.5,138.5C 86.9501,139.85 87.6168,141.516 87.5,143.5C 85.5165,143.617 83.8498,142.95 82.5,141.5C 81.3961,142.631 81.7295,143.465 83.5,144C 82.1667,145.667 80.8333,147.333 79.5,149C 81.0905,150.046 82.5905,151.213 84,152.5C 85.608,150.9 87.4414,149.567 89.5,148.5C 84.2702,147.075 84.2702,145.909 89.5,145C 88.3044,144.346 88.3044,143.846 89.5,143.5C 90.5,144 91.5,144.5 92.5,145C 91.2888,145.893 91.2888,146.726 92.5,147.5C 93.2508,146.624 93.7508,145.624 94,144.5C 95.46,146.422 97.1267,147.089 99,146.5C 102.745,147.297 106.579,147.797 110.5,148C 110.833,148.333 111.167,148.667 111.5,149C 109.833,149.333 108.167,149.667 106.5,150C 107.5,150.333 108.5,150.667 109.5,151C 103.975,151.437 102.808,153.604 106,157.5C 106.953,155.408 108.286,155.075 110,156.5C 110.29,154.956 110.956,153.623 112,152.5C 113.84,153.833 114.34,153.666 113.5,152C 115.333,150.167 117.167,148.333 119,146.5C 121.528,145.742 123.861,145.742 126,146.5C 126.617,145.551 126.451,144.718 125.5,144C 123.1,142.943 120.767,142.276 118.5,142C 118.957,141.586 119.291,141.086 119.5,140.5C 117.488,136.408 116.988,132.075 118,127.5C 118.92,127.07 119.753,126.736 120.5,126.5C 117.776,121.538 114.61,121.204 111,125.5C 110.617,124.944 110.117,124.611 109.5,124.5C 113.5,121.5 117.5,118.5 121.5,115.5C 125.229,116.968 128.896,118.635 132.5,120.5C 133.425,121.357 134.092,122.357 134.5,123.5C 132.46,122.481 130.46,122.481 128.5,123.5C 129.158,126.813 130.491,129.813 132.5,132.5C 132.291,133.086 131.957,133.586 131.5,134C 132.67,135.755 134.337,136.755 136.5,137C 134.845,138.444 134.178,140.278 134.5,142.5C 132.343,144.412 130.009,146.079 127.5,147.5C 119.552,151.812 111.886,156.645 104.5,162C 102.192,162.991 99.8591,163.824 97.5,164.5C 81.6815,153.42 65.3482,143.087 48.5,133.5C 47.4324,131.26 45.7658,129.426 43.5,128C 37.3733,124.704 31.3733,121.204 25.5,117.5C 24.8333,116.833 24.1667,116.167 23.5,115.5C 25.5914,115.318 27.5914,115.652 29.5,116.5C 30.7989,115.91 31.6322,114.91 32,113.5C 32.6838,114.784 32.5171,115.951 31.5,117C 32.0779,118.417 33.0779,119.25 34.5,119.5 Z"/></g>
<g><path style="opacity:1" fill="#7353d6" d="M 1045.5,141.5 C 1045.83,141.5 1046.17,141.5 1046.5,141.5C 1046.5,144.5 1046.5,147.5 1046.5,150.5C 1047.5,150.5 1048.5,150.5 1049.5,150.5C 1047.96,151.914 1046.29,152.247 1044.5,151.5C 1045.42,148.242 1045.75,144.909 1045.5,141.5 Z"/></g>
<g><path style="opacity:1" fill="#f8f8f8" d="M 974.5,140.5 C 975.978,140.238 977.311,140.571 978.5,141.5C 979.967,145.069 981.134,148.736 982,152.5C 983.53,148.91 984.864,145.243 986,141.5C 987.183,140.269 988.349,140.269 989.5,141.5C 987.298,148.272 984.798,154.939 982,161.5C 980.211,163.229 978.044,163.896 975.5,163.5C 975.5,162.5 975.5,161.5 975.5,160.5C 978.127,160.707 979.793,159.54 980.5,157C 978.394,151.515 976.394,146.015 974.5,140.5 Z"/></g>
<g><path style="opacity:1" fill="#021e36" d="M 167.5,149.5 C 167.5,150.167 167.5,150.833 167.5,151.5C 167.631,152.239 167.464,152.906 167,153.5C 166.346,152.304 165.846,152.304 165.5,153.5C 166.641,154.425 166.641,155.259 165.5,156C 164.146,157.294 162.812,157.46 161.5,156.5C 160.417,157.365 160.251,158.365 161,159.5C 164.281,158.084 167.948,156.751 172,155.5C 174,156.833 176,156.833 178,155.5C 182.524,157.873 182.357,160.207 177.5,162.5C 180.214,165.213 179.547,166.046 175.5,165C 175,164.5 174.5,164 174,163.5C 172.529,165.902 171.029,165.736 169.5,163C 171.5,162.167 173.5,161.333 175.5,160.5C 169.818,159.349 166.485,161.682 165.5,167.5C 168.01,167.998 170.51,168.664 173,169.5C 174.716,169.252 176.216,168.585 177.5,167.5C 178.833,167.833 180.167,168.167 181.5,168.5C 181.833,167.833 182.167,167.167 182.5,166.5C 184.88,167.767 187.046,167.434 189,165.5C 190.257,165.15 190.591,164.483 190,163.5C 187.22,162.862 185.053,161.362 183.5,159C 185.221,158.261 186.887,157.427 188.5,156.5C 189.829,154.374 191.163,152.374 192.5,150.5C 193.957,156.838 193.29,162.838 190.5,168.5C 184.989,168.526 180.822,170.859 178,175.5C 177.586,175.043 177.086,174.709 176.5,174.5C 175.369,175.751 174.036,176.751 172.5,177.5C 170.681,176.685 169.181,176.685 168,177.5C 166.159,180.83 163.659,183.496 160.5,185.5C 157.589,184.424 155.089,183.424 153,182.5C 152.751,183.624 152.251,184.624 151.5,185.5C 150.289,184.726 150.289,183.893 151.5,183C 150.437,181.812 149.103,181.312 147.5,181.5C 147.737,180.209 147.404,179.209 146.5,178.5C 146.103,173.041 146.603,167.708 148,162.5C 154.099,157.536 160.599,153.203 167.5,149.5 Z"/></g>
<g><path style="opacity:1" fill="#a8a9aa" d="M 127.5,147.5 C 127.5,151.167 127.5,154.833 127.5,158.5C 120.718,161.916 113.885,164.582 107,166.5C 106.333,165.833 105.667,165.167 105,164.5C 103.687,167.007 101.521,169.341 98.5,171.5C 98.702,169.05 98.3686,166.717 97.5,164.5C 99.8591,163.824 102.192,162.991 104.5,162C 111.886,156.645 119.552,151.812 127.5,147.5 Z"/></g>
<g><path style="opacity:1" fill="#00203f" d="M 192.5,149.5 C 192.5,149.833 192.5,150.167 192.5,150.5C 191.163,152.374 189.829,154.374 188.5,156.5C 186.887,157.427 185.221,158.261 183.5,159C 185.053,161.362 187.22,162.862 190,163.5C 190.591,164.483 190.257,165.15 189,165.5C 187.046,167.434 184.88,167.767 182.5,166.5C 182.167,167.167 181.833,167.833 181.5,168.5C 180.167,168.167 178.833,167.833 177.5,167.5C 176.216,168.585 174.716,169.252 173,169.5C 170.51,168.664 168.01,167.998 165.5,167.5C 166.485,161.682 169.818,159.349 175.5,160.5C 173.5,161.333 171.5,162.167 169.5,163C 171.029,165.736 172.529,165.902 174,163.5C 174.5,164 175,164.5 175.5,165C 179.547,166.046 180.214,165.213 177.5,162.5C 182.357,160.207 182.524,157.873 178,155.5C 176,156.833 174,156.833 172,155.5C 167.948,156.751 164.281,158.084 161,159.5C 160.251,158.365 160.417,157.365 161.5,156.5C 162.812,157.46 164.146,157.294 165.5,156C 166.641,155.259 166.641,154.425 165.5,153.5C 165.846,152.304 166.346,152.304 167,153.5C 167.464,152.906 167.631,152.239 167.5,151.5C 168.496,151.586 169.329,151.252 170,150.5C 173.01,152.673 176.343,154.006 180,154.5C 181.955,154.359 183.455,153.526 184.5,152C 183.5,151.667 182.5,151.333 181.5,151C 184.938,151.135 187.772,149.968 190,147.5C 190.417,148.756 191.25,149.423 192.5,149.5 Z"/></g>
<g><path style="opacity:1" fill="#d0d0d0" d="M 127.5,158.5 C 127.5,165.167 127.5,171.833 127.5,178.5C 126.069,177.097 124.902,175.431 124,173.5C 122.477,175.62 120.644,175.953 118.5,174.5C 111.633,176.869 104.966,178.869 98.5,180.5C 98.5,177.5 98.5,174.5 98.5,171.5C 101.521,169.341 103.687,167.007 105,164.5C 105.667,165.167 106.333,165.833 107,166.5C 113.885,164.582 120.718,161.916 127.5,158.5 Z"/></g>
<g><path style="opacity:1" fill="#041524" d="M 190.5,168.5 C 177.343,177.47 164.01,186.304 150.5,195C 149.207,195.49 147.873,195.657 146.5,195.5C 146.5,189.833 146.5,184.167 146.5,178.5C 147.404,179.209 147.737,180.209 147.5,181.5C 149.103,181.312 150.437,181.812 151.5,183C 150.289,183.893 150.289,184.726 151.5,185.5C 152.251,184.624 152.751,183.624 153,182.5C 155.089,183.424 157.589,184.424 160.5,185.5C 163.659,183.496 166.159,180.83 168,177.5C 169.181,176.685 170.681,176.685 172.5,177.5C 174.036,176.751 175.369,175.751 176.5,174.5C 177.086,174.709 177.586,175.043 178,175.5C 180.822,170.859 184.989,168.526 190.5,168.5 Z"/></g>
</svg>
