<?xml version="1.0" encoding="UTF-8"?>
<!DOCTYPE svg PUBLIC "-//W3C//DTD SVG 1.1//EN" "http://www.w3.org/Graphics/SVG/1.1/DTD/svg11.dtd">
<svg xmlns="http://www.w3.org/2000/svg" version="1.1" width="1088px" height="229px" style="shape-rendering:geometricPrecision; text-rendering:geometricPrecision; image-rendering:optimizeQuality; fill-rule:evenodd; clip-rule:evenodd" xmlns:xlink="http://www.w3.org/1999/xlink">
<g><path style="opacity:1" fill="#094684" d="M 138.5,25.5 C 135.984,25.2447 133.65,24.4114 131.5,23C 126.152,19.312 120.818,15.6454 115.5,12C 113.299,11.1751 111.466,11.6751 110,13.5C 109.667,12.8333 109.333,12.1667 109,11.5C 107.095,12.158 105.595,13.3247 104.5,15C 105.783,17.7947 105.783,20.6281 104.5,23.5C 103.719,22.2713 103.219,20.938 103,19.5C 101.245,23.35 101.078,27.35 102.5,31.5C 103.251,30.624 103.751,29.624 104,28.5C 105.333,29.8333 106.667,31.1667 108,32.5C 109.494,31.2528 110.994,31.2528 112.5,32.5C 111.675,33.3857 110.675,33.719 109.5,33.5C 109.34,35.1992 109.506,36.8659 110,38.5C 113.913,39.756 116.913,42.0893 119,45.5C 122.436,47.2742 125.269,49.6076 127.5,52.5C 121.119,48.983 115.119,44.983 109.5,40.5C 107.325,37.4382 104.491,36.7715 101,38.5C 100.501,42.8206 100.334,47.1539 100.5,51.5C 99.5,51.5 98.5,51.5 97.5,51.5C 97.8841,49.3352 97.2174,47.6685 95.5,46.5C 92.9665,47.7883 90.4665,47.7883 88,46.5C 87.6667,47.1667 87.3333,47.8333 87,48.5C 84.5753,48.1661 81.742,47.8328 78.5,47.5C 77.8869,48.9798 77.5536,50.3131 77.5,51.5C 76.8243,50.3984 76.1577,49.3984 75.5,48.5C 75.2829,39.4587 75.7829,30.4587 77,21.5C 77.6622,20.0161 78.4955,18.6828 79.5,17.5C 86.6546,12.0162 94.3213,7.34958 102.5,3.5C 104.299,3.57697 105.966,4.07697 107.5,5C 117.899,11.8569 128.232,18.6902 138.5,25.5 Z"/></g>
<g><path style="opacity:1" fill="#085099" d="M 138.5,25.5 C 145.833,30.1667 153.167,34.8333 160.5,39.5C 161.957,41.7848 163.957,43.6181 166.5,45C 161.35,44.6383 159.35,46.805 160.5,51.5C 163.149,49.7944 165.982,48.4611 169,47.5C 170.65,48.8908 171.15,50.3908 170.5,52C 171.449,52.6172 172.282,52.4506 173,51.5C 174.237,53.1044 175.403,54.771 176.5,56.5C 177.086,56.2907 177.586,55.9574 178,55.5C 178.667,57.1667 178.667,58.8333 178,60.5C 174.727,61.6597 171.394,61.6597 168,60.5C 166.373,60.6251 164.873,61.1251 163.5,62C 166.066,63.8681 168.9,65.3681 172,66.5C 172.781,67.9437 172.614,69.277 171.5,70.5C 167.699,68.188 164.199,65.5213 161,62.5C 160.055,62.9054 159.388,63.572 159,64.5C 156.16,61.6293 153.826,61.9626 152,65.5C 151.014,64.8288 149.847,64.8288 148.5,65.5C 140.989,61.9153 133.989,57.5819 127.5,52.5C 125.269,49.6076 122.436,47.2742 119,45.5C 116.913,42.0893 113.913,39.756 110,38.5C 109.506,36.8659 109.34,35.1992 109.5,33.5C 110.675,33.719 111.675,33.3857 112.5,32.5C 110.994,31.2528 109.494,31.2528 108,32.5C 106.667,31.1667 105.333,29.8333 104,28.5C 103.751,29.624 103.251,30.624 102.5,31.5C 101.078,27.35 101.245,23.35 103,19.5C 103.219,20.938 103.719,22.2713 104.5,23.5C 105.783,20.6281 105.783,17.7947 104.5,15C 105.595,13.3247 107.095,12.158 109,11.5C 109.333,12.1667 109.667,12.8333 110,13.5C 111.466,11.6751 113.299,11.1751 115.5,12C 120.818,15.6454 126.152,19.312 131.5,23C 133.65,24.4114 135.984,25.2447 138.5,25.5 Z"/></g>
<g><path style="opacity:1" fill="#052c52" d="M 53.5,66.5 C 48.2227,69.386 43.056,72.386 38,75.5C 35.3384,75.2212 34.505,74.0545 35.5,72C 33.5273,71.5045 31.5273,71.3379 29.5,71.5C 29.0618,71.5654 28.7284,71.3988 28.5,71C 29.263,70.0565 30.263,69.5565 31.5,69.5C 33.1547,70.228 34.8214,70.3947 36.5,70C 34.8198,69.6532 33.8198,68.6532 33.5,67C 34.5857,65.5053 35.919,63.672 37.5,61.5C 33.7925,59.3742 33.6258,57.0409 37,54.5C 37.3333,51.1667 37.6667,47.8333 38,44.5C 39.2547,43.7894 40.4214,42.956 41.5,42C 41.2716,41.6012 40.9382,41.4346 40.5,41.5C 44.762,38.0256 49.4287,35.0256 54.5,32.5C 55.6658,43.4849 55.8324,54.4849 55,65.5C 54.6174,66.056 54.1174,66.3893 53.5,66.5 Z"/></g>
<g><path style="opacity:1" fill="#05376a" d="M 109.5,40.5 C 107.844,39.8535 106.177,39.1869 104.5,38.5C 103.584,38.5427 102.917,38.8761 102.5,39.5C 101.773,45.1887 101.106,51.022 100.5,57C 101.801,58.9392 101.135,60.1058 98.5,60.5C 97.8133,58.7256 96.9799,57.0589 96,55.5C 95.3828,56.4491 95.5494,57.2825 96.5,58C 95.8333,58.6667 95.1667,59.3333 94.5,60C 89.8106,61.1212 85.1439,62.2878 80.5,63.5C 80.1667,61.5 79.8333,59.5 79.5,57.5C 81.604,57.7989 83.604,57.4656 85.5,56.5C 83.7095,54.5403 81.5428,53.207 79,52.5C 78.8979,56.1042 78.2312,59.7708 77,63.5C 76.4992,58.4918 75.9992,53.4918 75.5,48.5C 76.1577,49.3984 76.8243,50.3984 77.5,51.5C 77.5536,50.3131 77.8869,48.9798 78.5,47.5C 81.742,47.8328 84.5753,48.1661 87,48.5C 87.3333,47.8333 87.6667,47.1667 88,46.5C 90.4665,47.7883 92.9665,47.7883 95.5,46.5C 97.2174,47.6685 97.8841,49.3352 97.5,51.5C 98.5,51.5 99.5,51.5 100.5,51.5C 100.334,47.1539 100.501,42.8206 101,38.5C 104.491,36.7715 107.325,37.4382 109.5,40.5 Z"/></g>
<g><path style="opacity:1" fill="#012443" d="M 40.5,41.5 C 40.9382,41.4346 41.2716,41.6012 41.5,42C 40.4214,42.956 39.2547,43.7894 38,44.5C 37.6667,47.8333 37.3333,51.1667 37,54.5C 33.6258,57.0409 33.7925,59.3742 37.5,61.5C 35.919,63.672 34.5857,65.5053 33.5,67C 33.8198,68.6532 34.8198,69.6532 36.5,70C 34.8214,70.3947 33.1547,70.228 31.5,69.5C 30.263,69.5565 29.263,70.0565 28.5,71C 28.7284,71.3988 29.0618,71.5654 29.5,71.5C 30.7846,73.8061 30.1179,75.6394 27.5,77C 30.6545,77.9814 30.9878,79.3148 28.5,81C 30.9047,82.6146 30.9047,83.2812 28.5,83C 24.0591,78.6359 20.7258,73.4692 18.5,67.5C 17.8076,66.9747 17.3076,66.3081 17,65.5C 14.6051,66.7982 13.4384,65.9649 13.5,63C 13.765,60.118 14.765,60.118 16.5,63C 18.4727,63.4955 20.4727,63.6621 22.5,63.5C 22.4839,67.0888 23.4839,67.2554 25.5,64C 25.3333,63.5 25.1667,63 25,62.5C 24.3333,63.8333 23.6667,63.8333 23,62.5C 21.7736,60.1305 20.9403,57.9638 20.5,56C 24.5969,53.6304 28.2635,50.7971 31.5,47.5C 34.2911,45.2651 37.2911,43.2651 40.5,41.5 Z"/></g>
<g><path style="opacity:1" fill="#062f57" d="M 79.5,17.5 C 78.4955,18.6828 77.6622,20.0161 77,21.5C 75.7829,30.4587 75.2829,39.4587 75.5,48.5C 75.9992,53.4918 76.4992,58.4918 77,63.5C 78.2312,59.7708 78.8979,56.1042 79,52.5C 81.5428,53.207 83.7095,54.5403 85.5,56.5C 83.604,57.4656 81.604,57.7989 79.5,57.5C 79.8333,59.5 80.1667,61.5 80.5,63.5C 85.1439,62.2878 89.8106,61.1212 94.5,60C 95.1667,59.3333 95.8333,58.6667 96.5,58C 95.5494,57.2825 95.3828,56.4491 96,55.5C 96.9799,57.0589 97.8133,58.7256 98.5,60.5C 101.135,60.1058 101.801,58.9392 100.5,57C 101.106,51.022 101.773,45.1887 102.5,39.5C 102.334,47.84 102.5,56.1733 103,64.5C 106.631,66.3109 109.798,68.6443 112.5,71.5C 108.681,70.6507 105.347,68.9841 102.5,66.5C 100.983,65.2651 99.3163,65.2651 97.5,66.5C 93.9705,69.9607 89.9705,72.7941 85.5,75C 88.1667,75.6667 88.1667,76.3333 85.5,77C 86.4303,78.3953 86.4303,79.8953 85.5,81.5C 88.102,84.7056 89.602,88.3723 90,92.5C 91.7635,93.9437 93.7635,94.9437 96,95.5C 92.7553,91.0423 89.9219,86.0423 87.5,80.5C 88.5575,80.0941 89.8908,80.0941 91.5,80.5C 91.6639,83.7476 92.6639,86.7476 94.5,89.5C 95.8596,87.0188 96.8596,87.3522 97.5,90.5C 99.6641,91.4143 101.664,92.581 103.5,94C 102.207,94.49 100.873,94.6567 99.5,94.5C 99.5,95.5 99.5,96.5 99.5,97.5C 104.704,96.5298 108.371,98.3632 110.5,103C 115.094,105.118 119.094,107.952 122.5,111.5C 116.222,107.689 109.889,103.856 103.5,100C 101.305,99.5906 99.3049,100.091 97.5,101.5C 93.0907,102.382 89.5907,101.048 87,97.5C 86.2825,98.4506 85.4491,98.6172 84.5,98C 83.0158,96.4263 81.3492,95.093 79.5,94C 80.1383,92.2933 80.1383,90.46 79.5,88.5C 77.4727,88.6621 75.4727,88.4955 73.5,88C 74.1667,87.3333 74.8333,86.6667 75.5,86C 74.5761,85.15 74.5761,84.15 75.5,83C 76.5054,81.328 77.8387,79.9946 79.5,79C 78.4615,76.106 77.2948,73.606 76,71.5C 75.7216,72.4158 75.2216,73.0825 74.5,73.5C 74.3334,56.4967 74.5001,39.4967 75,22.5C 75.3122,19.6908 76.8122,18.0241 79.5,17.5 Z"/></g>
<g><path style="opacity:1" fill="#08498b" d="M 160.5,39.5 C 164.221,41.3535 167.554,43.6869 170.5,46.5C 175.789,50.8171 181.455,54.6505 187.5,58C 189.977,59.6331 191.81,61.7998 193,64.5C 194.238,71.6591 193.404,78.4924 190.5,85C 191.257,86.5122 192.257,87.8455 193.5,89C 192.708,91.3361 191.375,91.8361 189.5,90.5C 188.756,89.0095 188.09,87.5095 187.5,86C 181.928,83.6911 176.261,81.3578 170.5,79C 166.794,75.9854 162.794,73.8187 158.5,72.5C 154.779,70.6465 151.446,68.3131 148.5,65.5C 149.847,64.8288 151.014,64.8288 152,65.5C 153.826,61.9626 156.16,61.6293 159,64.5C 159.388,63.572 160.055,62.9054 161,62.5C 164.199,65.5213 167.699,68.188 171.5,70.5C 172.614,69.277 172.781,67.9437 172,66.5C 168.9,65.3681 166.066,63.8681 163.5,62C 164.873,61.1251 166.373,60.6251 168,60.5C 171.394,61.6597 174.727,61.6597 178,60.5C 178.667,58.8333 178.667,57.1667 178,55.5C 177.586,55.9574 177.086,56.2907 176.5,56.5C 175.403,54.771 174.237,53.1044 173,51.5C 172.282,52.4506 171.449,52.6172 170.5,52C 171.15,50.3908 170.65,48.8908 169,47.5C 165.982,48.4611 163.149,49.7944 160.5,51.5C 159.35,46.805 161.35,44.6383 166.5,45C 163.957,43.6181 161.957,41.7848 160.5,39.5 Z"/></g>
<g><path style="opacity:1" fill="#131313" d="M 521.5,67.5 C 541.992,67.6205 562.325,67.9538 582.5,68.5C 581.713,73.6955 580.213,78.6955 578,83.5C 574.333,84.1667 570.667,84.8333 567,85.5C 566.183,94.7447 566.35,103.911 567.5,113C 562.809,128.24 557.809,143.406 552.5,158.5C 550.5,158.5 548.5,158.5 546.5,158.5C 546.5,134.167 546.5,109.833 546.5,85.5C 537.627,85.4643 528.96,85.131 520.5,84.5C 518.958,78.5721 519.292,72.9055 521.5,67.5 Z"/></g>
<g><path style="opacity:1" fill="#131313" d="M 918.5,67.5 C 919.458,67.9528 920.292,68.6195 921,69.5C 921.499,74.4889 921.666,79.4889 921.5,84.5C 907.932,84.7158 894.265,84.7158 880.5,84.5C 880.5,91.1667 880.5,97.8333 880.5,104.5C 892.833,104.5 905.167,104.5 917.5,104.5C 917.5,110.167 917.5,115.833 917.5,121.5C 905.167,121.5 892.833,121.5 880.5,121.5C 880.5,128.167 880.5,134.833 880.5,141.5C 894.167,141.5 907.833,141.5 921.5,141.5C 921.5,147.167 921.5,152.833 921.5,158.5C 901.167,158.5 880.833,158.5 860.5,158.5C 860.5,128.5 860.5,98.5 860.5,68.5C 880.007,68.8303 899.341,68.497 918.5,67.5 Z"/></g>
<g><path style="opacity:1" fill="#131313" d="M 328.5,68.5 C 343.837,68.3334 359.17,68.5001 374.5,69C 387.333,71.1667 394.833,78.6667 397,91.5C 398.997,105.367 394.164,116.034 382.5,123.5C 389.297,134.761 395.297,146.428 400.5,158.5C 393.159,158.666 385.826,158.5 378.5,158C 373.067,147.873 367.567,137.706 362,127.5C 357.934,126.536 353.767,126.203 349.5,126.5C 349.167,137.168 348.834,147.835 348.5,158.5C 341.833,158.5 335.167,158.5 328.5,158.5C 328.5,128.5 328.5,98.5 328.5,68.5 Z M 350.5,84.5 C 357.241,84.1712 363.908,84.6712 370.5,86C 377.037,91.4753 378.204,97.9753 374,105.5C 371.293,107.936 368.127,109.436 364.5,110C 359.5,110.667 354.5,110.667 349.5,110C 349.167,104.333 348.833,98.6667 348.5,93C 349.213,90.1737 349.88,87.3404 350.5,84.5 Z"/></g>
<g><path style="opacity:1" fill="#021424" d="M 10.5,61.5 C 10.5,64.5 10.5,67.5 10.5,70.5C 11.2188,75.1179 11.7188,79.7846 12,84.5C 13.0283,86.3615 14.5283,87.6948 16.5,88.5C 17.7596,90.3529 17.7596,92.1862 16.5,94C 20.335,96.4044 24.0016,98.4044 27.5,100C 27.1667,100.333 26.8333,100.667 26.5,101C 30.749,101.477 32.0823,103.643 30.5,107.5C 28.5334,106.047 26.3668,105.047 24,104.5C 23.699,107.462 23.5323,110.128 23.5,112.5C 17.6434,110.139 12.8101,106.472 9,101.5C 8.33333,88.8333 8.33333,76.1667 9,63.5C 9.27842,62.5842 9.77842,61.9175 10.5,61.5 Z"/></g>
<g><path style="opacity:1" fill="#01182e" d="M 10.5,70.5 C 12.0672,71.6808 12.9005,73.3474 13,75.5C 13.3333,74.8333 13.6667,74.1667 14,73.5C 17.3059,76.7667 20.1392,80.4333 22.5,84.5C 21.6744,85.451 21.5078,86.451 22,87.5C 23.6851,89.0175 25.1851,90.6841 26.5,92.5C 29.44,94.2938 32.1067,94.2938 34.5,92.5C 35.7946,93.0983 37.1279,93.5983 38.5,94C 37.5,94.3333 36.5,94.6667 35.5,95C 36.4987,98.8543 38.1653,102.354 40.5,105.5C 41.8333,104.833 43.1667,104.167 44.5,103.5C 45.9488,105.611 46.9488,107.944 47.5,110.5C 50.6198,112.121 53.2865,114.288 55.5,117C 54.6919,117.308 54.0253,117.808 53.5,118.5C 54.6888,119.429 56.0222,119.762 57.5,119.5C 57.7861,124.557 60.2861,126.224 65,124.5C 66.605,125.101 67.9384,126.101 69,127.5C 70.073,126.72 71.2396,126.887 72.5,128C 73.8333,128.667 73.8333,129.333 72.5,130C 74.3008,130.317 74.6341,130.984 73.5,132C 75.0806,132.707 76.5806,133.54 78,134.5C 78.9138,133.346 79.7471,133.513 80.5,135C 80.1667,135.333 79.8333,135.667 79.5,136C 81.4552,136.953 83.1218,138.287 84.5,140C 89.374,141.473 94.0406,142.807 98.5,144C 97.09,144.368 96.09,145.201 95.5,146.5C 97.7368,147.132 99.4035,148.465 100.5,150.5C 102.982,149.731 104.815,150.731 106,153.5C 106.667,152.833 107.333,152.167 108,151.5C 108.388,152.428 109.055,153.095 110,153.5C 111.261,152.342 112.427,152.342 113.5,153.5C 112.432,154.434 111.099,154.768 109.5,154.5C 109.33,155.822 109.663,156.989 110.5,158C 106.49,160.233 102.49,161.4 98.5,161.5C 83.0968,151.38 67.5968,141.38 52,131.5C 46.4053,134.712 40.9053,138.046 35.5,141.5C 35.5,141.167 35.5,140.833 35.5,140.5C 38.7537,137.529 42.4204,135.029 46.5,133C 48.8912,131.691 48.8912,130.691 46.5,130C 47.1667,129.667 47.8333,129.333 48.5,129C 46.9411,128.02 45.2744,127.187 43.5,126.5C 42.3595,125.575 42.3595,124.741 43.5,124C 38.884,123.049 35.384,120.549 33,116.5C 32.586,116.957 32.086,117.291 31.5,117.5C 29.5708,116.62 27.7374,115.62 26,114.5C 22.532,116.144 19.3654,118.144 16.5,120.5C 14.6675,121.248 13.0009,122.248 11.5,123.5C 11.1667,123.5 10.8333,123.5 10.5,123.5C 13.7636,119.753 17.7636,116.92 22.5,115C 23.2524,114.329 23.5858,113.496 23.5,112.5C 23.5323,110.128 23.699,107.462 24,104.5C 26.3668,105.047 28.5334,106.047 30.5,107.5C 32.0823,103.643 30.749,101.477 26.5,101C 26.8333,100.667 27.1667,100.333 27.5,100C 24.0016,98.4044 20.335,96.4044 16.5,94C 17.7596,92.1862 17.7596,90.3529 16.5,88.5C 14.5283,87.6948 13.0283,86.3615 12,84.5C 11.7188,79.7846 11.2188,75.1179 10.5,70.5 Z"/></g>
<g><path style="opacity:1" fill="#131313" d="M 614.5,68.5 C 625.172,68.3335 635.839,68.5002 646.5,69C 660.291,71.4624 667.791,79.629 669,93.5C 670.967,106.733 666.133,116.566 654.5,123C 660.702,134.376 666.702,145.876 672.5,157.5C 665.189,158.665 657.856,158.831 650.5,158C 644.35,148.201 638.85,138.034 634,127.5C 629.599,126.533 625.099,126.2 620.5,126.5C 620.5,137.167 620.5,147.833 620.5,158.5C 613.833,158.5 607.167,158.5 600.5,158.5C 600.333,141.83 600.5,125.163 601,108.5C 605.811,95.2319 610.311,81.8986 614.5,68.5 Z M 624.5,84.5 C 629.179,84.3342 633.845,84.5008 638.5,85C 646.389,87.5959 649.556,93.0959 648,101.5C 645.694,106.914 641.527,109.747 635.5,110C 630.581,110.802 625.748,110.635 621,109.5C 620.569,101.463 620.402,93.6297 620.5,86C 622.058,85.79 623.391,85.29 624.5,84.5 Z"/></g>
<g><path style="opacity:1" fill="#022140" d="M 97.5,101.5 C 94.7089,103.735 91.7089,105.735 88.5,107.5C 86.983,106.265 85.3163,106.265 83.5,107.5C 81.5,104.5 79.5,101.5 77.5,98.5C 76.7261,97.2888 75.8928,97.2888 75,98.5C 74.3333,97.8333 73.6667,97.1667 73,96.5C 73.1085,95.369 73.6085,94.369 74.5,93.5C 73.4187,91.7888 72.0854,90.2888 70.5,89C 71.5792,86.8448 72.9126,84.8448 74.5,83C 74.2716,82.6012 73.9382,82.4346 73.5,82.5C 74.4025,79.6085 74.7359,76.6085 74.5,73.5C 75.2216,73.0825 75.7216,72.4158 76,71.5C 77.2948,73.606 78.4615,76.106 79.5,79C 77.8387,79.9946 76.5054,81.328 75.5,83C 74.5761,84.15 74.5761,85.15 75.5,86C 74.8333,86.6667 74.1667,87.3333 73.5,88C 75.4727,88.4955 77.4727,88.6621 79.5,88.5C 80.1383,90.46 80.1383,92.2933 79.5,94C 81.3492,95.093 83.0158,96.4263 84.5,98C 85.4491,98.6172 86.2825,98.4506 87,97.5C 89.5907,101.048 93.0907,102.382 97.5,101.5 Z"/></g>
<g><path style="opacity:1" fill="#011a32" d="M 170.5,80.5 C 176.613,84.0624 182.613,87.8958 188.5,92C 190.761,94.7716 192.261,97.9382 193,101.5C 193.779,98.9028 194.279,98.9028 194.5,101.5C 194.141,103.371 193.141,104.871 191.5,106C 187.615,108.725 183.615,111.225 179.5,113.5C 176.26,111.887 174.76,109.22 175,105.5C 174.667,105.833 174.333,106.167 174,106.5C 171.333,105.167 168.667,103.833 166,102.5C 167.126,100.05 166.459,98.0503 164,96.5C 163.383,97.4491 163.549,98.2825 164.5,99C 162.833,98.3333 161.167,98.3333 159.5,99C 159.034,97.7012 159.034,96.2012 159.5,94.5C 157.5,94.8333 155.5,95.1667 153.5,95.5C 158.326,92.1964 163.326,89.0297 168.5,86C 170.155,84.5557 170.822,82.7224 170.5,80.5 Z"/></g>
<g><path style="opacity:1" fill="#131313" d="M 490.5,68.5 C 497.167,68.5 503.833,68.5 510.5,68.5C 510.667,98.1685 510.5,127.835 510,157.5C 503.59,158.478 497.09,158.811 490.5,158.5C 489.2,128.515 489.2,98.5153 490.5,68.5 Z"/></g>
<g><path style="opacity:1" fill="#121212" d="M 804.5,66.5 C 821.106,65.299 834.272,71.299 844,84.5C 845.165,88.3192 846.332,92.1525 847.5,96C 847.387,97.2798 846.72,98.1131 845.5,98.5C 839.19,97.8703 832.856,97.2037 826.5,96.5C 823.292,88.6476 817.458,84.6476 809,84.5C 799.384,85.064 792.717,90.064 789,99.5C 784.359,113.284 786.526,125.784 795.5,137C 803.44,142.134 811.773,142.8 820.5,139C 825.128,135.243 827.795,130.41 828.5,124.5C 822.467,125.536 816.467,125.536 810.5,124.5C 809.221,119.814 809.221,115.147 810.5,110.5C 823.149,109.501 835.816,109.168 848.5,109.5C 851.876,144.956 835.876,161.456 800.5,159C 781.315,154.835 770.148,143.002 767,123.5C 763.803,105.099 768.636,89.2657 781.5,76C 788.592,71.1104 796.259,67.9437 804.5,66.5 Z"/></g>
<g><path style="opacity:1" fill="#0c3c6e" d="M 170.5,46.5 C 176.609,49.7244 182.609,53.2244 188.5,57C 191.237,58.6141 193.403,60.7808 195,63.5C 195.827,76.3401 195.66,89.0067 194.5,101.5C 194.279,98.9028 193.779,98.9028 193,101.5C 192.261,97.9382 190.761,94.7716 188.5,92C 182.613,87.8958 176.613,84.0624 170.5,80.5C 166.43,77.8082 162.43,75.1415 158.5,72.5C 162.794,73.8187 166.794,75.9854 170.5,79C 176.261,81.3578 181.928,83.6911 187.5,86C 188.09,87.5095 188.756,89.0095 189.5,90.5C 191.375,91.8361 192.708,91.3361 193.5,89C 192.257,87.8455 191.257,86.5122 190.5,85C 193.404,78.4924 194.238,71.6591 193,64.5C 191.81,61.7998 189.977,59.6331 187.5,58C 181.455,54.6505 175.789,50.8171 170.5,46.5 Z"/></g>
<g><path style="opacity:1" fill="#063c73" d="M 102.5,66.5 C 105.347,68.9841 108.681,70.6507 112.5,71.5C 124.713,78.0988 136.38,85.4322 147.5,93.5C 149.091,95.6326 151.091,97.2993 153.5,98.5C 152.242,101.738 153.242,102.905 156.5,102C 153.847,104.576 154.514,106.076 158.5,106.5C 159.836,105.577 161.17,105.077 162.5,105C 160.781,106.87 159.781,109.037 159.5,111.5C 155.913,109.461 152.08,107.795 148,106.5C 146.699,106.96 145.366,107.294 144,107.5C 137.705,105.551 132.205,103.385 127.5,101C 129.952,100.71 132.285,100.044 134.5,99C 132.965,98.5038 131.465,98.6705 130,99.5C 128.238,99.0556 128.405,98.5556 130.5,98C 128.865,97.4604 127.532,97.9604 126.5,99.5C 124.167,98.3333 121.833,97.1667 119.5,96C 123.213,95.7699 123.88,94.6032 121.5,92.5C 116.766,88.8105 111.433,86.4771 105.5,85.5C 105.166,80.2391 103.166,79.0725 99.5,82C 100.362,84.7344 101.195,84.9011 102,82.5C 102.692,83.0253 103.192,83.6919 103.5,84.5C 101.955,85.4519 100.288,85.7852 98.5,85.5C 98.5,83.8333 98.5,82.1667 98.5,80.5C 95.054,80.1109 91.7206,79.2775 88.5,78C 89.8333,77.3333 89.8333,76.6667 88.5,76C 89.8333,75.6667 91.1667,75.3333 92.5,75C 94.1238,71.7347 96.4572,69.068 99.5,67C 100.448,66.5172 101.448,66.3505 102.5,66.5 Z"/></g>
<g><path style="opacity:1" fill="#131313" d="M 706.5,68.5 C 715.418,68.1828 724.251,68.5161 733,69.5C 742.903,98.6854 753.403,128.019 764.5,157.5C 757.167,158.833 749.833,158.833 742.5,157.5C 740.087,151.335 737.754,145.169 735.5,139C 724.818,138.168 714.151,138.334 703.5,139.5C 701.6,145.846 699.267,152.013 696.5,158C 689.331,158.958 682.331,158.625 675.5,157C 686.114,127.661 696.447,98.1613 706.5,68.5 Z M 718.5,91.5 C 719.497,91.4701 720.164,91.9701 720.5,93C 723.836,102.684 727.169,112.351 730.5,122C 723.508,122.5 716.508,122.666 709.5,122.5C 712.345,112.121 715.345,101.788 718.5,91.5 Z"/></g>
<g><path style="opacity:1" fill="#053769" d="M 102.5,66.5 C 101.448,66.3505 100.448,66.5172 99.5,67C 96.4572,69.068 94.1238,71.7347 92.5,75C 91.1667,75.3333 89.8333,75.6667 88.5,76C 89.8333,76.6667 89.8333,77.3333 88.5,78C 91.7206,79.2775 95.054,80.1109 98.5,80.5C 98.5,82.1667 98.5,83.8333 98.5,85.5C 100.288,85.7852 101.955,85.4519 103.5,84.5C 103.192,83.6919 102.692,83.0253 102,82.5C 101.195,84.9011 100.362,84.7344 99.5,82C 103.166,79.0725 105.166,80.2391 105.5,85.5C 111.433,86.4771 116.766,88.8105 121.5,92.5C 123.88,94.6032 123.213,95.7699 119.5,96C 121.833,97.1667 124.167,98.3333 126.5,99.5C 127.532,97.9604 128.865,97.4604 130.5,98C 128.405,98.5556 128.238,99.0556 130,99.5C 131.465,98.6705 132.965,98.5038 134.5,99C 132.285,100.044 129.952,100.71 127.5,101C 132.205,103.385 137.705,105.551 144,107.5C 145.366,107.294 146.699,106.96 148,106.5C 152.08,107.795 155.913,109.461 159.5,111.5C 159.781,109.037 160.781,106.87 162.5,105C 161.17,105.077 159.836,105.577 158.5,106.5C 154.514,106.076 153.847,104.576 156.5,102C 153.242,102.905 152.242,101.738 153.5,98.5C 153.435,98.0618 153.601,97.7284 154,97.5C 158.163,99.9947 162.33,102.495 166.5,105C 168.167,106.667 169.833,108.333 171.5,110C 171.167,110.333 170.833,110.667 170.5,111C 175.519,113.843 180.186,117.176 184.5,121C 182.833,123 181.167,125 179.5,127C 173.913,127.94 168.413,129.106 163,130.5C 162.92,128.752 162.087,127.085 160.5,125.5C 157.54,124.375 154.54,123.375 151.5,122.5C 154.702,121.953 157.702,120.953 160.5,119.5C 160.669,120.397 161.002,121.397 161.5,122.5C 166.248,126.289 170.748,125.956 175,121.5C 176.902,122.386 178.735,122.053 180.5,120.5C 178.554,118.848 176.554,118.015 174.5,118C 168.175,117.5 161.842,117.334 155.5,117.5C 155.672,115.508 155.005,113.842 153.5,112.5C 150.5,111.167 147.5,111.167 144.5,112.5C 145.326,113.451 145.492,114.451 145,115.5C 143.693,114.228 142.193,113.228 140.5,112.5C 141.641,111.575 141.641,110.741 140.5,110C 138.633,109.289 137.133,109.789 136,111.5C 134.207,110.619 133.54,111.286 134,113.5C 134.333,113.167 134.667,112.833 135,112.5C 137.941,112.941 139.774,114.607 140.5,117.5C 141.425,118.641 142.259,118.641 143,117.5C 143.5,118.667 144.333,119.5 145.5,120C 144.584,120.374 143.75,120.874 143,121.5C 139.488,119.405 135.988,117.238 132.5,115C 130.5,114.667 128.5,114.333 126.5,114C 125.529,112.519 124.196,111.685 122.5,111.5C 119.094,107.952 115.094,105.118 110.5,103C 108.371,98.3632 104.704,96.5298 99.5,97.5C 99.5,96.5 99.5,95.5 99.5,94.5C 100.873,94.6567 102.207,94.49 103.5,94C 101.664,92.581 99.6641,91.4143 97.5,90.5C 96.8596,87.3522 95.8596,87.0188 94.5,89.5C 92.6639,86.7476 91.6639,83.7476 91.5,80.5C 89.8908,80.0941 88.5575,80.0941 87.5,80.5C 89.9219,86.0423 92.7553,91.0423 96,95.5C 93.7635,94.9437 91.7635,93.9437 90,92.5C 89.602,88.3723 88.102,84.7056 85.5,81.5C 86.4303,79.8953 86.4303,78.3953 85.5,77C 88.1667,76.3333 88.1667,75.6667 85.5,75C 89.9705,72.7941 93.9705,69.9607 97.5,66.5C 99.3163,65.2651 100.983,65.2651 102.5,66.5 Z"/></g>
<g><path style="opacity:1" fill="#54d5f3" d="M 1045.5,97.5 C 1054.62,97.2607 1062.12,100.594 1068,107.5C 1069.09,109.078 1069.93,110.745 1070.5,112.5C 1070.65,113.552 1070.48,114.552 1070,115.5C 1067.91,115.402 1065.74,114.736 1063.5,113.5C 1063.5,112.5 1063.5,111.5 1063.5,110.5C 1061.8,110.66 1060.13,110.494 1058.5,110C 1056.42,108.252 1054.42,106.418 1052.5,104.5C 1051.21,103.902 1049.87,103.402 1048.5,103C 1048.96,102.586 1049.29,102.086 1049.5,101.5C 1047.58,100.676 1046.25,99.3428 1045.5,97.5 Z"/></g>
<g><path style="opacity:1" fill="#121212" d="M 262.5,67.5 C 271.082,68.4699 279.749,68.8032 288.5,68.5C 298.833,98.5 309.167,128.5 319.5,158.5C 312.492,158.666 305.492,158.5 298.5,158C 296.167,151.667 293.833,145.333 291.5,139C 280.505,138.5 269.505,138.333 258.5,138.5C 256.965,144.972 254.965,151.305 252.5,157.5C 245.532,158.497 238.532,158.83 231.5,158.5C 240.319,132.893 248.986,107.227 257.5,81.5C 253.833,81.5 250.167,81.5 246.5,81.5C 246.5,77.1667 246.5,72.8333 246.5,68.5C 252.026,68.8214 257.36,68.4881 262.5,67.5 Z M 274.5,90.5 C 278.716,100.819 282.716,111.319 286.5,122C 279.167,122.667 271.833,122.667 264.5,122C 267.733,111.467 271.066,100.967 274.5,90.5 Z"/></g>
<g><path style="opacity:1" fill="#011d35" d="M 31.5,47.5 C 28.2635,50.7971 24.5969,53.6304 20.5,56C 20.9403,57.9638 21.7736,60.1305 23,62.5C 23.6667,63.8333 24.3333,63.8333 25,62.5C 25.1667,63 25.3333,63.5 25.5,64C 23.4839,67.2554 22.4839,67.0888 22.5,63.5C 20.4727,63.6621 18.4727,63.4955 16.5,63C 14.765,60.118 13.765,60.118 13.5,63C 13.4384,65.9649 14.6051,66.7982 17,65.5C 17.3076,66.3081 17.8076,66.9747 18.5,67.5C 20.7258,73.4692 24.0591,78.6359 28.5,83C 30.9047,83.2812 30.9047,82.6146 28.5,81C 30.9878,79.3148 30.6545,77.9814 27.5,77C 30.1179,75.6394 30.7846,73.8061 29.5,71.5C 31.5273,71.3379 33.5273,71.5045 35.5,72C 34.505,74.0545 35.3384,75.2212 38,75.5C 43.056,72.386 48.2227,69.386 53.5,66.5C 47.7536,71.5518 41.4202,75.8851 34.5,79.5C 34.1667,80.3333 33.8333,81.1667 33.5,82C 34.2701,84.0687 35.6035,85.7353 37.5,87C 42.2301,90.3635 47.2301,93.1968 52.5,95.5C 58.8682,100.874 65.5348,106.041 72.5,111C 74.4089,111.448 75.5756,110.615 76,108.5C 77.0113,109.337 78.1779,109.67 79.5,109.5C 79.2714,107.567 78.4381,105.9 77,104.5C 74.6667,102.833 72.3333,101.167 70,99.5C 67.3219,95.9485 66.3219,92.2819 67,88.5C 68.7583,86.9168 70.2583,85.2501 71.5,83.5C 72.1667,83.1667 72.8333,82.8333 73.5,82.5C 73.9382,82.4346 74.2716,82.6012 74.5,83C 72.9126,84.8448 71.5792,86.8448 70.5,89C 72.0854,90.2888 73.4187,91.7888 74.5,93.5C 73.6085,94.369 73.1085,95.369 73,96.5C 73.6667,97.1667 74.3333,97.8333 75,98.5C 75.8928,97.2888 76.7261,97.2888 77.5,98.5C 79.5,101.5 81.5,104.5 83.5,107.5C 85.3163,106.265 86.983,106.265 88.5,107.5C 85.5178,109.474 82.5178,111.474 79.5,113.5C 86.7553,118.956 94.422,123.622 102.5,127.5C 100.777,128.807 98.9435,128.807 97,127.5C 95.5421,129.524 93.7087,129.691 91.5,128C 95.5,127.333 95.5,126.667 91.5,126C 90.9614,122.786 88.7947,120.62 85,119.5C 83.7387,119.759 82.7387,120.426 82,121.5C 82.6081,119.316 81.9414,117.316 80,115.5C 79.2613,116.574 78.2613,117.241 77,117.5C 76.6118,115.929 75.1118,114.929 72.5,114.5C 72.0894,115.262 71.9227,116.262 72,117.5C 69.8422,114.704 67.0089,113.371 63.5,113.5C 63.5,115.5 63.5,117.5 63.5,119.5C 64.8734,119.343 66.2068,119.51 67.5,120C 66.3595,120.741 66.3595,121.575 67.5,122.5C 70.1667,123.167 72.8333,123.833 75.5,124.5C 76.7111,125.72 76.7111,126.887 75.5,128C 79.6169,129.308 83.6169,130.808 87.5,132.5C 89.1667,133.5 90.5,134.833 91.5,136.5C 93.5352,137.041 95.5352,137.708 97.5,138.5C 97.9858,140.497 99.1525,141.831 101,142.5C 104.098,143.321 107.431,143.321 111,142.5C 112.591,139.405 114.757,136.738 117.5,134.5C 115.026,130.988 114.859,127.321 117,123.5C 117.669,126.028 118.502,126.028 119.5,123.5C 118.264,122.643 116.931,121.977 115.5,121.5C 111.685,124.01 107.685,126.01 103.5,127.5C 107.205,124.474 111.205,121.808 115.5,119.5C 118.596,118.907 120.929,119.907 122.5,122.5C 121.391,123.965 121.891,124.965 124,125.5C 124.908,123.561 126.408,122.561 128.5,122.5C 128.451,125.099 127.451,127.266 125.5,129C 127.694,131.602 128.361,134.436 127.5,137.5C 128.169,140.028 129.002,140.028 130,137.5C 131.036,139.299 131.203,140.966 130.5,142.5C 128.664,145.168 126.331,147.334 123.5,149C 120.035,150.323 116.701,151.823 113.5,153.5C 112.427,152.342 111.261,152.342 110,153.5C 109.055,153.095 108.388,152.428 108,151.5C 107.333,152.167 106.667,152.833 106,153.5C 104.815,150.731 102.982,149.731 100.5,150.5C 99.4035,148.465 97.7368,147.132 95.5,146.5C 96.09,145.201 97.09,144.368 98.5,144C 94.0406,142.807 89.374,141.473 84.5,140C 83.1218,138.287 81.4552,136.953 79.5,136C 79.8333,135.667 80.1667,135.333 80.5,135C 79.7471,133.513 78.9138,133.346 78,134.5C 76.5806,133.54 75.0806,132.707 73.5,132C 74.6341,130.984 74.3008,130.317 72.5,130C 73.8333,129.333 73.8333,128.667 72.5,128C 71.2396,126.887 70.073,126.72 69,127.5C 67.9384,126.101 66.605,125.101 65,124.5C 60.2861,126.224 57.7861,124.557 57.5,119.5C 56.0222,119.762 54.6888,119.429 53.5,118.5C 54.0253,117.808 54.6919,117.308 55.5,117C 53.2865,114.288 50.6198,112.121 47.5,110.5C 46.9488,107.944 45.9488,105.611 44.5,103.5C 43.1667,104.167 41.8333,104.833 40.5,105.5C 38.1653,102.354 36.4987,98.8543 35.5,95C 36.5,94.6667 37.5,94.3333 38.5,94C 37.1279,93.5983 35.7946,93.0983 34.5,92.5C 32.1067,94.2938 29.44,94.2938 26.5,92.5C 25.1851,90.6841 23.6851,89.0175 22,87.5C 21.5078,86.451 21.6744,85.451 22.5,84.5C 20.1392,80.4333 17.3059,76.7667 14,73.5C 13.6667,74.1667 13.3333,74.8333 13,75.5C 12.9005,73.3474 12.0672,71.6808 10.5,70.5C 10.5,67.5 10.5,64.5 10.5,61.5C 16.9004,56.1189 23.9004,51.4523 31.5,47.5 Z"/></g>
<g><path style="opacity:1" fill="#011121" d="M 71.5,83.5 C 70.2583,85.2501 68.7583,86.9168 67,88.5C 66.3219,92.2819 67.3219,95.9485 70,99.5C 72.3333,101.167 74.6667,102.833 77,104.5C 78.4381,105.9 79.2714,107.567 79.5,109.5C 78.1779,109.67 77.0113,109.337 76,108.5C 75.5756,110.615 74.4089,111.448 72.5,111C 65.5348,106.041 58.8682,100.874 52.5,95.5C 58.8333,91.5 65.1667,87.5 71.5,83.5 Z"/></g>
<g><path style="opacity:1" fill="#59b6f3" d="M 1038.5,99.5 C 1041.46,103.721 1045.29,105.721 1050,105.5C 1051.12,106.552 1051.62,107.719 1051.5,109C 1053.43,110.459 1055.43,111.625 1057.5,112.5C 1053.61,113.694 1049.61,113.528 1045.5,112C 1040.34,109.588 1035.34,106.921 1030.5,104C 1032.74,101.716 1035.4,100.216 1038.5,99.5 Z"/></g>
<g><path style="opacity:1" fill="#121212" d="M 589.5,67.5 C 595.81,68.1904 602.143,68.5237 608.5,68.5C 605.711,81.336 601.544,93.6693 596,105.5C 590.314,123.257 584.48,140.924 578.5,158.5C 571.833,158.5 565.167,158.5 558.5,158.5C 567.845,127.796 578.179,97.4632 589.5,67.5 Z"/></g>
<g><path style="opacity:1" fill="#001f3e" d="M 102.5,127.5 C 102.833,127.5 103.167,127.5 103.5,127.5C 107.685,126.01 111.685,124.01 115.5,121.5C 116.931,121.977 118.264,122.643 119.5,123.5C 118.502,126.028 117.669,126.028 117,123.5C 114.859,127.321 115.026,130.988 117.5,134.5C 114.757,136.738 112.591,139.405 111,142.5C 107.431,143.321 104.098,143.321 101,142.5C 99.1525,141.831 97.9858,140.497 97.5,138.5C 95.5352,137.708 93.5352,137.041 91.5,136.5C 90.5,134.833 89.1667,133.5 87.5,132.5C 83.6169,130.808 79.6169,129.308 75.5,128C 76.7111,126.887 76.7111,125.72 75.5,124.5C 72.8333,123.833 70.1667,123.167 67.5,122.5C 66.3595,121.575 66.3595,120.741 67.5,120C 66.2068,119.51 64.8734,119.343 63.5,119.5C 63.5,117.5 63.5,115.5 63.5,113.5C 67.0089,113.371 69.8422,114.704 72,117.5C 71.9227,116.262 72.0894,115.262 72.5,114.5C 75.1118,114.929 76.6118,115.929 77,117.5C 78.2613,117.241 79.2613,116.574 80,115.5C 81.9414,117.316 82.6081,119.316 82,121.5C 82.7387,120.426 83.7387,119.759 85,119.5C 88.7947,120.62 90.9614,122.786 91.5,126C 95.5,126.667 95.5,127.333 91.5,128C 93.7087,129.691 95.5421,129.524 97,127.5C 98.9435,128.807 100.777,128.807 102.5,127.5 Z"/></g>
<g><path style="opacity:1" fill="#59c4f4" d="M 1045.5,97.5 C 1046.25,99.3428 1047.58,100.676 1049.5,101.5C 1049.29,102.086 1048.96,102.586 1048.5,103C 1049.87,103.402 1051.21,103.902 1052.5,104.5C 1054.42,106.418 1056.42,108.252 1058.5,110C 1060.13,110.494 1061.8,110.66 1063.5,110.5C 1063.5,111.5 1063.5,112.5 1063.5,113.5C 1065.74,114.736 1067.91,115.402 1070,115.5C 1070.48,114.552 1070.65,113.552 1070.5,112.5C 1072.07,114.102 1072.74,116.102 1072.5,118.5C 1072.66,121.518 1072.5,124.518 1072,127.5C 1070.74,125.697 1069.07,124.364 1067,123.5C 1066.8,121.744 1066.3,120.078 1065.5,118.5C 1063.9,119.55 1063.06,118.883 1063,116.5C 1061.25,117.553 1059.75,117.22 1058.5,115.5C 1062.79,113.19 1062.45,112.19 1057.5,112.5C 1055.43,111.625 1053.43,110.459 1051.5,109C 1051.62,107.719 1051.12,106.552 1050,105.5C 1045.29,105.721 1041.46,103.721 1038.5,99.5C 1040.6,98.3882 1042.93,97.7215 1045.5,97.5 Z"/></g>
<g><path style="opacity:1" fill="#121212" d="M 409.5,68.5 C 425.17,68.3334 440.837,68.5001 456.5,69C 474.442,74.0548 480.275,85.2215 474,102.5C 471.266,105.738 468.099,108.405 464.5,110.5C 479.543,118.471 483.71,130.138 477,145.5C 471.293,153.515 463.459,157.682 453.5,158C 438.925,158.823 424.425,158.656 410,157.5C 409.5,127.835 409.333,98.1685 409.5,68.5 Z M 430.5,84.5 C 437.574,84.161 444.574,84.661 451.5,86C 456.746,91.6993 456.746,97.3659 451.5,103C 444.239,104.348 436.906,104.848 429.5,104.5C 429.207,97.7446 429.54,91.0779 430.5,84.5 Z M 429.5,119.5 C 436.841,119.334 444.174,119.5 451.5,120C 460.706,125.48 461.706,132.146 454.5,140C 446.251,141.406 437.917,141.906 429.5,141.5C 429.5,134.167 429.5,126.833 429.5,119.5 Z"/></g>
<g><path style="opacity:1" fill="#011425" d="M 124.5,114.5 C 130.26,115.969 135.26,118.635 139.5,122.5C 137.844,121.854 136.177,121.187 134.5,120.5C 131.846,121.469 131.18,123.136 132.5,125.5C 135.077,128.665 138.077,131.332 141.5,133.5C 141,134.5 140.5,135.5 140,136.5C 138.927,135.72 137.76,135.887 136.5,137C 135.937,140.397 133.937,142.23 130.5,142.5C 131.203,140.966 131.036,139.299 130,137.5C 129.002,140.028 128.169,140.028 127.5,137.5C 128.361,134.436 127.694,131.602 125.5,129C 127.451,127.266 128.451,125.099 128.5,122.5C 126.408,122.561 124.908,123.561 124,125.5C 121.891,124.965 121.391,123.965 122.5,122.5C 120.929,119.907 118.596,118.907 115.5,119.5C 118.331,117.583 121.331,115.917 124.5,114.5 Z"/></g>
<g><path style="opacity:1" fill="#60a9ef" d="M 1058.5,115.5 C 1059.75,117.22 1061.25,117.553 1063,116.5C 1063.06,118.883 1063.9,119.55 1065.5,118.5C 1066.3,120.078 1066.8,121.744 1067,123.5C 1069.07,124.364 1070.74,125.697 1072,127.5C 1072.5,124.518 1072.66,121.518 1072.5,118.5C 1073.16,120.473 1073.5,122.639 1073.5,125C 1073.67,128.477 1073.01,131.644 1071.5,134.5C 1070.54,131.248 1069.04,128.248 1067,125.5C 1065.64,126.38 1064.14,126.714 1062.5,126.5C 1063.3,125.577 1063.47,124.577 1063,123.5C 1060.62,124.554 1058.12,125.221 1055.5,125.5C 1055.67,124.178 1055.34,123.011 1054.5,122C 1051.41,120.454 1048.41,118.954 1045.5,117.5C 1049.92,117.348 1054.26,116.681 1058.5,115.5 Z"/></g>
<g><path style="opacity:1" fill="#6283e2" d="M 1045.5,117.5 C 1048.41,118.954 1051.41,120.454 1054.5,122C 1055.34,123.011 1055.67,124.178 1055.5,125.5C 1054.83,125.5 1054.17,125.5 1053.5,125.5C 1052.24,125.461 1051.24,125.961 1050.5,127C 1051.38,128.356 1051.71,129.856 1051.5,131.5C 1048.6,125.434 1044.1,120.767 1038,117.5C 1037,118.167 1036,118.833 1035,119.5C 1030.97,112.193 1032.14,111.026 1038.5,116C 1040.87,116.44 1043.2,116.94 1045.5,117.5 Z"/></g>
<g><path style="opacity:1" fill="#032a4e" d="M 35.5,140.5 C 34.6365,141.463 33.9698,141.463 33.5,140.5C 34.6857,137.034 34.019,134.034 31.5,131.5C 34.2592,127.944 33.9259,127.277 30.5,129.5C 29.5,129 28.5,128.5 27.5,128C 28.4498,125.41 30.1165,123.41 32.5,122C 31.5,121.5 30.5,121 29.5,120.5C 28.6184,121.76 27.6184,122.926 26.5,124C 26.8333,124.333 27.1667,124.667 27.5,125C 24.9478,126.282 22.2811,126.116 19.5,124.5C 18.9649,122.739 17.9649,121.406 16.5,120.5C 19.3654,118.144 22.532,116.144 26,114.5C 27.7374,115.62 29.5708,116.62 31.5,117.5C 32.086,117.291 32.586,116.957 33,116.5C 35.384,120.549 38.884,123.049 43.5,124C 42.3595,124.741 42.3595,125.575 43.5,126.5C 45.2744,127.187 46.9411,128.02 48.5,129C 47.8333,129.333 47.1667,129.667 46.5,130C 48.8912,130.691 48.8912,131.691 46.5,133C 42.4204,135.029 38.7537,137.529 35.5,140.5 Z"/></g>
<g><path style="opacity:1" fill="#032f58" d="M 147.5,93.5 C 149.315,94.6298 151.315,95.2964 153.5,95.5C 155.5,95.1667 157.5,94.8333 159.5,94.5C 159.034,96.2012 159.034,97.7012 159.5,99C 161.167,98.3333 162.833,98.3333 164.5,99C 163.549,98.2825 163.383,97.4491 164,96.5C 166.459,98.0503 167.126,100.05 166,102.5C 168.667,103.833 171.333,105.167 174,106.5C 174.333,106.167 174.667,105.833 175,105.5C 174.76,109.22 176.26,111.887 179.5,113.5C 181.167,114.833 182.833,116.167 184.5,117.5C 187.824,120.323 190.99,123.323 194,126.5C 194.65,135.969 193.816,145.302 191.5,154.5C 186.5,155.833 181.5,155.833 176.5,154.5C 178.274,153.813 179.941,152.98 181.5,152C 180.062,151.781 178.729,151.281 177.5,150.5C 180.447,149.679 183.447,149.179 186.5,149C 184.063,148.797 181.729,147.963 179.5,146.5C 183.499,144.722 187.499,144.055 191.5,144.5C 186.462,142.737 181.462,142.571 176.5,144C 175.075,145.714 175.408,147.047 177.5,148C 176.088,149.786 174.421,151.286 172.5,152.5C 171.96,149.142 171.627,145.809 171.5,142.5C 167.633,138.944 163.299,136.277 158.5,134.5C 156.313,133.242 153.98,132.242 151.5,131.5C 149.796,128.407 147.129,126.74 143.5,126.5C 142.133,125.16 140.8,123.827 139.5,122.5C 135.26,118.635 130.26,115.969 124.5,114.5C 123.833,113.5 123.167,112.5 122.5,111.5C 124.196,111.685 125.529,112.519 126.5,114C 128.5,114.333 130.5,114.667 132.5,115C 135.988,117.238 139.488,119.405 143,121.5C 143.75,120.874 144.584,120.374 145.5,120C 144.333,119.5 143.5,118.667 143,117.5C 142.259,118.641 141.425,118.641 140.5,117.5C 139.774,114.607 137.941,112.941 135,112.5C 134.667,112.833 134.333,113.167 134,113.5C 133.54,111.286 134.207,110.619 136,111.5C 137.133,109.789 138.633,109.289 140.5,110C 141.641,110.741 141.641,111.575 140.5,112.5C 142.193,113.228 143.693,114.228 145,115.5C 145.492,114.451 145.326,113.451 144.5,112.5C 147.5,111.167 150.5,111.167 153.5,112.5C 155.005,113.842 155.672,115.508 155.5,117.5C 161.842,117.334 168.175,117.5 174.5,118C 176.554,118.015 178.554,118.848 180.5,120.5C 178.735,122.053 176.902,122.386 175,121.5C 170.748,125.956 166.248,126.289 161.5,122.5C 161.002,121.397 160.669,120.397 160.5,119.5C 157.702,120.953 154.702,121.953 151.5,122.5C 154.54,123.375 157.54,124.375 160.5,125.5C 162.087,127.085 162.92,128.752 163,130.5C 168.413,129.106 173.913,127.94 179.5,127C 181.167,125 182.833,123 184.5,121C 180.186,117.176 175.519,113.843 170.5,111C 170.833,110.667 171.167,110.333 171.5,110C 169.833,108.333 168.167,106.667 166.5,105C 162.33,102.495 158.163,99.9947 154,97.5C 153.601,97.7284 153.435,98.0618 153.5,98.5C 151.091,97.2993 149.091,95.6326 147.5,93.5 Z"/></g>
<g><path style="opacity:1" fill="#06325e" d="M 16.5,120.5 C 17.9649,121.406 18.9649,122.739 19.5,124.5C 22.2811,126.116 24.9478,126.282 27.5,125C 27.1667,124.667 26.8333,124.333 26.5,124C 27.6184,122.926 28.6184,121.76 29.5,120.5C 30.5,121 31.5,121.5 32.5,122C 30.1165,123.41 28.4498,125.41 27.5,128C 28.5,128.5 29.5,129 30.5,129.5C 33.9259,127.277 34.2592,127.944 31.5,131.5C 34.019,134.034 34.6857,137.034 33.5,140.5C 33.9698,141.463 34.6365,141.463 35.5,140.5C 35.5,140.833 35.5,141.167 35.5,141.5C 35.1667,142.5 34.5,143.167 33.5,143.5C 24.0712,143.003 16.9045,138.337 12,129.5C 11.5045,127.527 11.3379,125.527 11.5,123.5C 13.0009,122.248 14.6675,121.248 16.5,120.5 Z"/></g>
<g><path style="opacity:1" fill="#6a74ef" d="M 1053.5,125.5 C 1053.5,125.833 1053.5,126.167 1053.5,126.5C 1052.57,127.568 1052.23,128.901 1052.5,130.5C 1054.86,130.337 1057.19,130.503 1059.5,131C 1060.83,131.667 1060.83,132.333 1059.5,133C 1060.93,133.465 1062.1,134.299 1063,135.5C 1063.33,135.167 1063.67,134.833 1064,134.5C 1065.39,136.702 1066.89,138.702 1068.5,140.5C 1066.83,142.833 1064.83,144.833 1062.5,146.5C 1062.67,145.178 1062.34,144.011 1061.5,143C 1062.45,142.383 1063.28,142.549 1064,143.5C 1064.78,138.738 1062.78,135.738 1058,134.5C 1055.74,135.169 1053.57,135.502 1051.5,135.5C 1051.5,134.167 1051.5,132.833 1051.5,131.5C 1051.71,129.856 1051.38,128.356 1050.5,127C 1051.24,125.961 1052.24,125.461 1053.5,125.5 Z"/></g>
<g><path style="opacity:1" fill="#6178da" d="M 1036.5,128.5 C 1041.5,128.833 1044.17,131.5 1044.5,136.5C 1038.83,136.833 1036.17,134.167 1036.5,128.5 Z"/></g>
<g><path style="opacity:1" fill="#000102" d="M 10.5,123.5 C 10.8333,123.5 11.1667,123.5 11.5,123.5C 11.3379,125.527 11.5045,127.527 12,129.5C 16.9045,138.337 24.0712,143.003 33.5,143.5C 33.33,144.822 33.6634,145.989 34.5,147C 55.5985,160.631 76.7652,174.131 98,187.5C 98.9454,187.095 99.6121,186.428 100,185.5C 100.5,178.174 100.666,170.841 100.5,163.5C 101.15,163.804 101.817,164.137 102.5,164.5C 104.602,162.23 107.102,160.563 110,159.5C 111.473,159.903 112.806,160.57 114,161.5C 113.021,164.475 111.688,167.475 110,170.5C 109.102,179.678 113.269,185.011 122.5,186.5C 123.386,187.325 123.719,188.325 123.5,189.5C 124.833,189.5 126.167,189.5 127.5,189.5C 127.721,186.933 128.388,184.599 129.5,182.5C 129.666,190.84 129.5,199.173 129,207.5C 122.092,212.705 114.926,217.538 107.5,222C 103.5,224 99.5,224 95.5,222C 66.7444,203.874 38.2444,185.374 10,166.5C 8.86762,159.434 8.36762,152.267 8.5,145C 8.66667,138.5 8.83333,132 9,125.5C 9.27842,124.584 9.77842,123.918 10.5,123.5 Z"/></g>
<g><path style="opacity:1" fill="#020202" d="M 957.5,133.5 C 958.5,133.5 959.5,133.5 960.5,133.5C 960.337,135.857 960.503,138.19 961,140.5C 964.534,137.799 967.867,138.133 971,141.5C 972.923,145.805 972.923,150.138 971,154.5C 970.25,155.126 969.416,155.626 968.5,156C 964.746,155.914 961.079,156.08 957.5,156.5C 957.5,148.833 957.5,141.167 957.5,133.5 Z M 962.5,142.5 C 968.499,142.002 970.666,144.669 969,150.5C 964.577,154.859 961.744,153.859 960.5,147.5C 960.902,145.7 961.569,144.033 962.5,142.5 Z"/></g>
<g><path style="opacity:1" fill="#668df3" d="M 1071.5,134.5 C 1071.35,136.97 1070.35,138.97 1068.5,140.5C 1066.89,138.702 1065.39,136.702 1064,134.5C 1063.67,134.833 1063.33,135.167 1063,135.5C 1062.1,134.299 1060.93,133.465 1059.5,133C 1060.83,132.333 1060.83,131.667 1059.5,131C 1057.19,130.503 1054.86,130.337 1052.5,130.5C 1052.23,128.901 1052.57,127.568 1053.5,126.5C 1053.42,128.252 1054.25,129.252 1056,129.5C 1058.28,128.609 1060.45,127.609 1062.5,126.5C 1064.14,126.714 1065.64,126.38 1067,125.5C 1069.04,128.248 1070.54,131.248 1071.5,134.5 Z"/></g>
<g><path style="opacity:1" fill="#010101" d="M 980.5,138.5 C 981.822,138.33 982.989,138.663 984,139.5C 984.876,143.341 986.209,147.007 988,150.5C 989.487,146.884 990.82,143.217 992,139.5C 993.011,138.663 994.178,138.33 995.5,138.5C 993.308,145.91 990.808,153.243 988,160.5C 986.103,162.016 983.936,162.683 981.5,162.5C 981.5,161.5 981.5,160.5 981.5,159.5C 984.243,159.923 985.576,158.756 985.5,156C 983.724,150.174 982.057,144.34 980.5,138.5 Z"/></g>
<g><path style="opacity:1" fill="#715ff1" d="M 1062.5,146.5 C 1060.28,148.606 1057.61,149.606 1054.5,149.5C 1053.21,149.737 1052.21,149.404 1051.5,148.5C 1062.96,147.563 1063.46,144.563 1053,139.5C 1052.62,140.056 1052.12,140.389 1051.5,140.5C 1051.5,139.167 1051.5,137.833 1051.5,136.5C 1051.5,136.167 1051.5,135.833 1051.5,135.5C 1053.57,135.502 1055.74,135.169 1058,134.5C 1062.78,135.738 1064.78,138.738 1064,143.5C 1063.28,142.549 1062.45,142.383 1061.5,143C 1062.34,144.011 1062.67,145.178 1062.5,146.5 Z"/></g>
<g><path style="opacity:1" fill="#694eb4" d="M 1051.5,136.5 C 1051.5,137.833 1051.5,139.167 1051.5,140.5C 1051.5,143.167 1051.5,145.833 1051.5,148.5C 1052.21,149.404 1053.21,149.737 1054.5,149.5C 1053.43,150.434 1052.1,150.768 1050.5,150.5C 1050.18,145.637 1050.51,140.97 1051.5,136.5 Z"/></g>
<g><path style="opacity:1" fill="#744df6" d="M 1051.5,148.5 C 1051.5,145.833 1051.5,143.167 1051.5,140.5C 1052.12,140.389 1052.62,140.056 1053,139.5C 1063.46,144.563 1062.96,147.563 1051.5,148.5 Z"/></g>
<g><path style="opacity:1" fill="#02203e" d="M 184.5,117.5 C 187.516,118.343 190.183,119.843 192.5,122C 193.701,122.903 194.535,124.069 195,125.5C 195.5,132.826 195.666,140.159 195.5,147.5C 194.834,152.349 194.167,157.349 193.5,162.5C 191.709,163.924 189.875,165.258 188,166.5C 187.667,165.833 187.333,165.167 187,164.5C 185.052,166.539 182.885,166.539 180.5,164.5C 176.697,165.034 173.03,166.034 169.5,167.5C 163.624,166.225 158.291,163.891 153.5,160.5C 154.397,160.331 155.397,159.998 156.5,159.5C 156.291,158.914 155.957,158.414 155.5,158C 157.167,157.667 158.833,157.333 160.5,157C 159.619,156.292 158.953,155.458 158.5,154.5C 161.293,151.597 164.626,149.431 168.5,148C 169.804,147.196 170.471,146.029 170.5,144.5C 166.878,140.692 162.878,137.359 158.5,134.5C 163.299,136.277 167.633,138.944 171.5,142.5C 171.627,145.809 171.96,149.142 172.5,152.5C 174.421,151.286 176.088,149.786 177.5,148C 175.408,147.047 175.075,145.714 176.5,144C 181.462,142.571 186.462,142.737 191.5,144.5C 187.499,144.055 183.499,144.722 179.5,146.5C 181.729,147.963 184.063,148.797 186.5,149C 183.447,149.179 180.447,149.679 177.5,150.5C 178.729,151.281 180.062,151.781 181.5,152C 179.941,152.98 178.274,153.813 176.5,154.5C 181.5,155.833 186.5,155.833 191.5,154.5C 193.816,145.302 194.65,135.969 194,126.5C 190.99,123.323 187.824,120.323 184.5,117.5 Z"/></g>
<g><path style="opacity:1" fill="#011a31" d="M 195.5,147.5 C 195.666,153.176 195.499,158.843 195,164.5C 193.945,167.056 192.112,168.723 189.5,169.5C 188.54,168.485 187.373,168.485 186,169.5C 178.153,174.686 170.32,179.853 162.5,185C 160.765,185.651 159.098,185.485 157.5,184.5C 154.954,188.608 152.954,188.442 151.5,184C 152.128,180.874 151.461,177.874 149.5,175C 150.704,171.322 150.704,167.655 149.5,164C 149.439,162.289 150.106,160.956 151.5,160C 151.272,159.601 150.938,159.435 150.5,159.5C 153.159,157.836 155.825,156.17 158.5,154.5C 158.953,155.458 159.619,156.292 160.5,157C 158.833,157.333 157.167,157.667 155.5,158C 155.957,158.414 156.291,158.914 156.5,159.5C 155.397,159.998 154.397,160.331 153.5,160.5C 158.291,163.891 163.624,166.225 169.5,167.5C 173.03,166.034 176.697,165.034 180.5,164.5C 182.885,166.539 185.052,166.539 187,164.5C 187.333,165.167 187.667,165.833 188,166.5C 189.875,165.258 191.709,163.924 193.5,162.5C 194.167,157.349 194.834,152.349 195.5,147.5 Z"/></g>
<g><path style="opacity:1" fill="#000a15" d="M 139.5,122.5 C 140.8,123.827 142.133,125.16 143.5,126.5C 147.129,126.74 149.796,128.407 151.5,131.5C 144.465,136.368 137.299,141.035 130,145.5C 129.5,157.829 129.333,170.162 129.5,182.5C 128.388,184.599 127.721,186.933 127.5,189.5C 126.167,189.5 124.833,189.5 123.5,189.5C 123.719,188.325 123.386,187.325 122.5,186.5C 113.269,185.011 109.102,179.678 110,170.5C 111.688,167.475 113.021,164.475 114,161.5C 112.806,160.57 111.473,159.903 110,159.5C 107.102,160.563 104.602,162.23 102.5,164.5C 101.817,164.137 101.15,163.804 100.5,163.5C 99.8333,162.833 99.1667,162.167 98.5,161.5C 102.49,161.4 106.49,160.233 110.5,158C 109.663,156.989 109.33,155.822 109.5,154.5C 111.099,154.768 112.432,154.434 113.5,153.5C 116.701,151.823 120.035,150.323 123.5,149C 126.331,147.334 128.664,145.168 130.5,142.5C 133.937,142.23 135.937,140.397 136.5,137C 137.76,135.887 138.927,135.72 140,136.5C 140.5,135.5 141,134.5 141.5,133.5C 138.077,131.332 135.077,128.665 132.5,125.5C 131.18,123.136 131.846,121.469 134.5,120.5C 136.177,121.187 137.844,121.854 139.5,122.5 Z"/></g>
<g><path style="opacity:1" fill="#060e1a" d="M 150.5,159.5 C 150.938,159.435 151.272,159.601 151.5,160C 150.106,160.956 149.439,162.289 149.5,164C 150.704,167.655 150.704,171.322 149.5,175C 151.461,177.874 152.128,180.874 151.5,184C 152.954,188.442 154.954,188.608 157.5,184.5C 159.098,185.485 160.765,185.651 162.5,185C 170.32,179.853 178.153,174.686 186,169.5C 187.373,168.485 188.54,168.485 189.5,169.5C 179.049,176.111 168.715,182.944 158.5,190C 155.46,192.22 152.127,193.72 148.5,194.5C 148.333,183.162 148.5,171.828 149,160.5C 149.383,159.944 149.883,159.611 150.5,159.5 Z"/></g>
</svg>
